<svg xmlns="http://www.w3.org/2000/svg" viewBox="0 0 350 300">
  <defs>
    <style>
      .cls-1 {
        fill: hsla(200, 30%, 80%, 1);
      }
      .cls-2 {
        fill: hsla(200, 10%, 98%, 1);
      }
    </style>
  </defs>
  <g id="Livello_2">
    <g id="Livello_1-2"><rect width="350" height="300" class="cls-1" rx="20" ry="20"/><path
      d="M274.28 198.8a30.9 30.9 0 0 0-30.9-30.91h-16.93V86a29.83 29.83 0 0 0-29.83-29.8h-91.08A29.83 29.83 0 0 0 75.72 86v126.89a30.9 30.9 0 0 0 30.9 30.91l139.58-.15a30.89 30.89 0 0 0 28.08-30.76zm-167.66 32a17.9 17.9 0 0 1-17.89-17.89V86a16.83 16.83 0 0 1 16.81-16.8h91.08A16.83 16.83 0 0 1 213.43 86l-.14 126.87a30.77 30.77 0 0 0 5.71 17.91zm154.65-17.89a17.49 17.49 0 1 1-35 0l.15-32h16.93a17.91 17.91 0 0 1 17.89 17.9z"
      class="cls-2"/><path d="M150.79 119.61h46.36v13.01h-46.36zm0-24.1h46.36v13.01h-46.36zm-46.36 48.19h92.71v13.01h-92.71zm0 24.09h92.71v13.01h-92.71zm0 24.09h92.71v13.01h-92.71zm0-96.78h36.59v37.68h-36.59z" class="cls-2"/></g>
  </g>
</svg>
