<svg xmlns="http://www.w3.org/2000/svg" viewBox="0 0 350 300">
  <defs>
    <style>
      .cls-1 {
        fill: hsla(200, 30%, 80%, 1);
      }
      .cls-2 {
        fill: hsla(200, 10%, 98%, 1);
      }
    </style>
  </defs>
  <g id="Livello_2">
    <g id="Livello_1-2"><rect width="350" height="300" class="cls-1" rx="20" ry="20"/><path
      d="M278.05 108.16l-7.21-1.59-6.9-2.74a1.15 1.15 0 0 0-.41-.08 1 1 0 0 0-.48.12l-.15.07a1.1 1.1 0 0 0-.45 1.54l.83 1.36h-.51a3.86 3.86 0 0 0-2.82-1.25h-35.06a15.29 15.29 0 0 0 1.94-1.64 14.1 14.1 0 0 0 4-9.9 13.46 13.46 0 0 0-1.87-7 10 10 0 0 0-5.66-4.53 12 12 0 0 0-3.46-.53 8.28 8.28 0 0 0-5.93 2.32 7.64 7.64 0 0 0-2.24 5.37 7.42 7.42 0 0 0 1.43 4.4 8.49 8.49 0 0 0 4.11 3 3 3 0 0 0 1 .17 2.94 2.94 0 0 0 1-5.7 2.75 2.75 0 0 1-1.33-.9 1.63 1.63 0 0 1-.32-1 1.67 1.67 0 0 1 .5-1.19 2.4 2.4 0 0 1 1.84-.63 5.92 5.92 0 0 1 1.72.28 4.12 4.12 0 0 1 2.33 2 7.67 7.67 0 0 1 1 3.93 8.3 8.3 0 0 1-2.32 5.8c-1.88 1.93-4.7 3-8.34 3.12H214c-1.82 0-4.5-.93-7.55-2.62-5.31-2.92-11.93-8.13-17.09-12.35-2.36-1.92-4.79-3.94-7.26-6-4.25-3.54-8.65-7.19-13.09-10.69a198.62 198.62 0 0 0-18.07-12.66 111.39 111.39 0 0 0-15.82-8.29 49.58 49.58 0 0 0-18.32-3.49c-9.64 0-18.76 2.73-25.68 7.66a29.63 29.63 0 0 0-10.46 12.7V53.09a4.78 4.78 0 1 0-9.56 0v195.23a4.78 4.78 0 1 0 9.56 0v-135h37.83v47.35a2.94 2.94 0 0 0 5.87 0v-47.36h109v47.35a2.94 2.94 0 0 0 5.88 0v-47.35H260a3.88 3.88 0 0 0 3.2-1.7h.12l-.81 1.33a1.08 1.08 0 0 0 .32 1.47l.15.1a1.08 1.08 0 0 0 .6.18 1.14 1.14 0 0 0 .41-.07l6.9-2.74 7.21-1.59a1.09 1.09 0 0 0 0-2.13zm-130.2-44.49c3.71 2.29 7.53 4.85 11.28 7.57a47.94 47.94 0 0 0-5.35-.47h-1.63A41.3 41.3 0 0 0 135.48 74a23.93 23.93 0 0 0-9.56 7.35 14.68 14.68 0 0 0-2-3.21 12.13 12.13 0 0 0-9.25-4.39 12.53 12.53 0 0 0-3.88.62 9 9 0 0 0-4.67 3.31 8.11 8.11 0 0 0-1.54 4.71 6.9 6.9 0 0 0 .38 2.28 7.8 7.8 0 0 0 1.59 2.64 11.16 11.16 0 0 0 2.74 2.18 11.35 11.35 0 0 0 1.48.73 2.93 2.93 0 0 0 1.06.2 2.94 2.94 0 0 0 1.08-5.67 6.87 6.87 0 0 1-1.19-.67 4.58 4.58 0 0 1-.82-.72 1.89 1.89 0 0 1-.41-.65 1 1 0 0 1 0-.35 2.32 2.32 0 0 1 .44-1.27 3.19 3.19 0 0 1 1.69-1.15 6.81 6.81 0 0 1 2.09-.34 6.19 6.19 0 0 1 4.77 2.32 9.68 9.68 0 0 1 2.14 6.28 12.3 12.3 0 0 1-.41 3.11 15.26 15.26 0 0 1-4.86 7.89c-3 2.52-7.18 3.87-12.35 4h-.49a18.48 18.48 0 0 1-13.21-5.36c-4.08-4.12-6.15-10-6.16-17.54 0-.82 0-1.68.08-2.54a23.88 23.88 0 0 1 3.08-10.65A27.2 27.2 0 0 1 99.36 56.5a41 41 0 0 1 17.45-3.73 43.38 43.38 0 0 1 16.11 3 105 105 0 0 1 14.93 7.9zm36.79 28.06c2.51 2.06 5 4 7.34 5.87a95.32 95.32 0 0 0 11.64 7.9 1.51 1.51 0 0 0 .18.09h-23.13a13.63 13.63 0 0 0 2.7-3.74 15.77 15.77 0 0 0 1.54-6.94 19 19 0 0 0-.27-3.18zm-50.33 10.6h-.15a2.51 2.51 0 0 0 .35-.44 2.86 2.86 0 0 0 .43-2.2 4.34 4.34 0 0 1-.1-.9 1.75 1.75 0 0 1 .1-.67.53.53 0 0 1 .27-.31 1.44 1.44 0 0 1 .69-.16 2.12 2.12 0 0 1 .75.14 1.25 1.25 0 0 1 .46.3 1.89 1.89 0 0 1 .29.54 3.64 3.64 0 0 1 .18 1.11 2.56 2.56 0 0 1-.6 1.75 2.16 2.16 0 0 1-.85.55 5 5 0 0 1-1.82.29zM120 103.7a20.09 20.09 0 0 0 2.78-2.85 12.76 12.76 0 0 0 1.69 2.86 11.65 11.65 0 0 0 1.9 1.88h-9.07a19.5 19.5 0 0 0 2.7-1.89zm59-8.79a9.86 9.86 0 0 1-.94 4.35 7.06 7.06 0 0 1-2.48 2.93 5.08 5.08 0 0 1-2.77.79 5 5 0 0 1-3.12-1.06 3.4 3.4 0 0 1-.84-1 2.22 2.22 0 0 1-.26-1v-.18a3.4 3.4 0 0 1 .76-2.17 1.4 1.4 0 0 1 1-.43 1.17 1.17 0 0 1 .79.27 2.83 2.83 0 0 0-1 1.12 2.93 2.93 0 0 0 1.29 3.94 3.27 3.27 0 0 0 3 0 4.12 4.12 0 0 0 1.32-1.12 6 6 0 0 0 .93-1.78 7.27 7.27 0 0 0 .34-2.11 6 6 0 0 0-.55-2.53 5.73 5.73 0 0 0-1.93-2.3 7.37 7.37 0 0 0-9.41.83 9.07 9.07 0 0 0-2.47 6v.51a8.1 8.1 0 0 0 .92 3.76 8.81 8.81 0 0 0 1.42 2h-24a7.53 7.53 0 0 0 1.14-1.44 8.7 8.7 0 0 0 1.17-4.41 9.17 9.17 0 0 0-.51-3 7.15 7.15 0 0 0-7-4.91 7.09 7.09 0 0 0-4.71 1.72 6.52 6.52 0 0 0-1.65 2.32 7.6 7.6 0 0 0-.58 3 9.46 9.46 0 0 0 .14.99 6.55 6.55 0 0 1-.63-1 9.9 9.9 0 0 1-1-4.54 16.28 16.28 0 0 1 10.44-15.08 35.48 35.48 0 0 1 14.28-2.73h1.45c8.32.26 15.16 2.57 19.76 6.68a15.88 15.88 0 0 1 5.7 11.58zM80.66 93.8a25.31 25.31 0 0 0 5.39 8.2 23.61 23.61 0 0 0 4.64 3.59h-10z"
      class="cls-2"/><path d="M230.74 150a59.9 59.9 0 0 0-106 0h-34.9v97h175.84v-97z" class="cls-2"/><path d="M222.36 155.67a50.43 50.43 0 0 0-89.21 0L131.4 159h-30.57v79.26h153.85V159h-30.57z" class="cls-1"/></g>
  </g>
</svg>
