<svg xmlns="http://www.w3.org/2000/svg" viewBox="0 0 350 300">
  <defs>
    <style>
      .cls-1 {
        fill: hsla(200, 30%, 80%, 1);
      }
      .cls-2 {
        fill: hsla(200, 10%, 98%, 1);
      }
    </style>
  </defs><rect width="350" height="300" class="cls-1" rx="20" ry="20"/><path
    d="M307.31 188.78s.03-1.67.02-2.38c.052-.999.052-2.001 0-3a38.904 38.904 0 0 0-2.74-12.85 34.204 34.204 0 0 0-7.5-10.62c-6.79-6.69-16.3-11.36-26.22-13.25-8.59-1.62-17.58-1.97-26.33-2.43-10.11-.53-20.24-.84-30.36-1.08-5.45-.14-10.97-.24-16.45-.34-1.74-.03-5.04.18-4.53-2.28.46-2.29 4.28-1.49 6.1-1.49 8 .127 16 .307 24 .54 9.77.28 19.53.68 29.27 1.34 10.49.71 21.08 1.58 30.7 5.58 9.13 3.83 17.17 9.79 22.27 17.55a33.984 33.984 0 0 1 4.79 11.74c.487 2.15.821 4.333 1 6.53.13 1.24.13 2.48.13 3.72-.02.94-.17 2.94-.17 2.94l13.99.71a81.476 81.476 0 0 1 .07-8.27c.22-2.555.22-5.125 0-7.68a75.752 75.752 0 0 0-1.66-12.19c-3.42-5.72-10.3-9.38-16.1-12.26-12.37-6.12-25.77-10.15-39.15-13.41A313.072 313.072 0 0 0 230 129a2.45 2.45 0 0 1-2.15 2.5c-1.28.12-2.34-1.05-3.28-1.79-1.78 2.27-4.6-.52-6.22-1.61l-2.44-1.64c-7.28-4.89-14.64-9.79-22.11-14.26-7.47-4.47-15.38-8.76-23.8-11.13a95.611 95.611 0 0 1 18.26 10.72c4.83 3.52 9.44 7.36 14 11.26 1.07.91 2.25 1.71 2.55 3.17a3.67 3.67 0 0 1-.92 3.28c-1.72 1.74-3.53.41-5-.8-8.54-7.06-17.21-14.1-26.79-19.71-1.69 1.39-4.11-.57-5.77-1.19a42.395 42.395 0 0 0-7.51-2c-8.67-1.5-17.7-1.08-26.42-.21-9.28.92-18.47 2.46-27.62 4.24 1.72 2.79 3.71 5.57 5.18 8.5 2.94 1.6 6.72 1.54 10 1.76l11 .78 21.9 1.6 19.17 1.42c6.54.47 13.07.66 19.54 1.4 2.13.25 3.25 3.24.82 4.1-1.24.44-3.09-.04-4.37-.13l-4.64-.31c-6.313-.42-12.647-.837-19-1.25a11181.41 11181.41 0 0 1-45.94-3.06c.77 3.25 1.64 6.78 2.64 10.78 3.91 15.41 8.1 30.76 12.91 45.91l2.55.14 26.42 1.47 15 .85 26.49 1.52 18.33 1 13.9.78c1.14.07 2.29.09 3.42.2a2.47 2.47 0 0 1 1.48.48c.07.06.136.125.198.194 1.094 1.221.457 3.169-1.148 3.506-.8.063-1.606.036-2.4-.08l-5.33-.28-15.13-.79-16.08-.84-27.62-1.41-15.83-.83-22.76-1.21c.46 1.27.89 2.74-.54 3.59a2.1 2.1 0 0 1-3-1.14c-.3-.89-.59-1.79-.88-2.69l-13.25-.73-15.72-.86c-1.62-.09-3.68-.07-3.79-2.28-.09-2.49 2.2-2.42 3.91-2.33l27.31 1.47a694.827 694.827 0 0 1-12.11-41.9 146.157 146.157 0 0 1-14.51-4.3c-4.74-1.67-9.24-3.89-14-5.35a143.847 143.847 0 0 0-30.13-6c1.67 1.67.67 3.67-1.13 4.67l-1.58.82-14.72 7.72c-1.69.88-3.37 1.82-5.09 2.64a2.15 2.15 0 0 1-2.91-.5c-.68-1.02-.92-2.35-1.6-3.35s-1.76-1.72-1.5-3c-1.34 1.47-4.31 7.3-6.69 3.73-1-1.5-.01-2.88.85-4.14a29.053 29.053 0 0 1 3.31-4.1 49.825 49.825 0 0 1 2.84-6.59c-1.44-3.08.86-5.84 3.86-6.54a59.482 59.482 0 0 1 7.18-.8c3.93-.47 7.85-.91 11.76-1.47 1.96-.27 3.89-.59 5.89-.95a15.441 15.441 0 0 1 3.1-.43c3 .06 6.03-.03 8.54-1.94 1.17-.89 1.83-2.15 2.83-3.15a7.919 7.919 0 0 1 3.19-1.24 264.635 264.635 0 0 1 20.6-5c7.65-1.54 15.34-2.65 23-4a199.897 199.897 0 0 1 23.63-2.93 85.948 85.948 0 0 1 24 1.61 79.16 79.16 0 0 1 18.62 7.28c12.28 6.37 23.61 14.58 34.93 22.49a2.61 2.61 0 0 1 2.69-1.1c1.73.12 3.47.25 5.21.4 3.567.307 7.123.687 10.67 1.14 7 .887 13.95 2.02 20.85 3.4a229.839 229.839 0 0 1 35.05 9.73c10.18 3.81 21.38 8.51 29 16.62 1.42 1.51 3.07 3.38 3.61 5.44a45.164 45.164 0 0 1 1.35 8c.31 4.36.9 8.89.37 13.24a41.996 41.996 0 0 0-.31 7c.12 2.82-.23 5.48-2.09 7.73-1.15 1.42-3.86 3.95-5.86 3a2.57 2.57 0 0 1-1.3-2.89c.29-1.17 1.23-1.54 2.14-2.17-8.22-.28-16.43-.36-24.63-1-1.56-.13-3.81.14-4.56-1.57a2.32 2.32 0 0 1 1.66-3.23c1.64-.29 3.7.21 5.36.32 2.14.14 4.28.26 6.42.38zM113.7 124.15a14.997 14.997 0 0 1-7.57-2.95 19.922 19.922 0 0 1-4.38-6.41 32.533 32.533 0 0 0-1.79-3.07c-.712-1.082-1.848-2.294-1.946-3.629a2.772 2.772 0 0 1 .846-2.351c-7.34 1.44-14.6 3.16-21.79 5.22-3.64 4.88-9.27 6.46-15.11 6-4.61.89-9.11 1.42-13.37 1.89 5.649-.032 11.294.302 16.9 1a159.932 159.932 0 0 1 26.64 6c3.73 1.15 7.31 3.02 11 4.37 4.27 1.55 8.61 2.87 13 4-.83-3.36-1.65-6.71-2.43-10.07zm-15.68-16.01a2.297 2.297 0 0 1-.006-.049l.006.049zm-.013-.219zM35.67 120.08c.225.405.348.857.36 1.318.01-.511.201-1.003.54-1.388l-.87.07zm.36 1.39v.08a3.851 3.851 0 0 0 0-.152v.072zm8.83 45.74c.33.047.645.171.918.362 1.337.935 1.161 2.968-.318 3.658a7.984 7.984 0 0 1-3.34-.05c-1.27-.12-2.54-.25-3.8-.43a33.114 33.114 0 0 1-12.26-3.9 19.768 19.768 0 0 1-4.55-3.65c-1.23-1.34-1.92-3.88.49-4.5 1.88-.48 3.19 1.89 4.48 2.89a21.015 21.015 0 0 0 5.52 3 44.788 44.788 0 0 0 12.86 2.62z"
    class="cls-2"/><path
    d="M129.234 143.51c-1.385-.864-1.315-2.903.126-3.67a7.595 7.595 0 0 1 3.08-.32h4.13a33 33 0 0 1 12.76 2.56c1.86.85 9.24 4.96 5.09 7.39-1.86 1.09-3.5-1.2-4.92-2.09a20.476 20.476 0 0 0-5.83-2.38 44.654 44.654 0 0 0-13.24-1.17 2.12 2.12 0 0 1-1.196-.32zM89.17 162.88a25.61 25.61 0 0 1 3.65 29.83A24.5 24.5 0 0 1 66 204.49a24.78 24.78 0 0 1-18.56-21.14 25.2 25.2 0 0 1 12.39-24.88 24.43 24.43 0 0 1 29.34 4.41zm-32.3 30.22c1.68-3.9 4.3-6.97 6.95-10.24a39.842 39.842 0 0 1-5.33 1.7 15.58 15.58 0 0 1-3.2.35A6.777 6.777 0 0 0 53 185a27.178 27.178 0 0 0 3.87 8.1zm-.55-25.1a28.217 28.217 0 0 0-3.73 8.42c4.15-.85 8.03-.43 12.15-.07-1.25-1.31-3.02-2.24-4.4-3.43a15.771 15.771 0 0 1-3.62-4.35c-.14-.2-.28-.37-.4-.57zm28.34 14.12a34.57 34.57 0 0 1 5.19 2.42c.526-3.038.556-6.142.09-9.19-3.36 2.57-7.15 3.92-11 5.47a.805.805 0 0 0-.13.11c1.93.41 3.89.65 5.85 1.19zm1.59-14.64a24.986 24.986 0 0 0-6.42-5.86c-.08 4.15-1.21 7.86-2.42 11.77 2.11-2 4.29-4 7.47-5a3.18 3.18 0 0 0 1.37-.91zM71.8 178.13c-.83.39-.86 2.18 0 2.53.071-.051.138-.108.2-.17.58-.56.65-1.96-.2-2.36zm-1.32-16.49c.169-.601.23-1.228.18-1.85a22.99 22.99 0 0 0-8.44 2.26 36.47 36.47 0 0 1 7.46 8.78c-.24-3.09-.33-6.19.76-9.19zm-5.55 35.07a4.292 4.292 0 0 0-.93 1.82 23.661 23.661 0 0 0 8.3 1.87 38.495 38.495 0 0 1-3.23-11.2 19.654 19.654 0 0 1-4.18 7.51zm22.28-4.84a37.432 37.432 0 0 1-10.77-4.73c.92 1.73 1.93 3.38 2.69 5.22.76 1.84.77 3.82 1.46 5.64a25.265 25.265 0 0 0 6.62-6.13zM269 161.37c11.48 0 20.86 8.92 22.69 19.99 1.56 9.36-2.2 19.29-10.13 24.7a22.51 22.51 0 0 1-28-2.33 25.429 25.429 0 0 1-6.47-25.62c2.91-9.61 11.73-16.74 21.91-16.74zM255.1 198c1.54-3.65 3.96-6.6 6.42-9.74a34.836 34.836 0 0 1-4.92 1.61c-.986.213-1.991.323-3 .33a6.437 6.437 0 0 0-2.1.06 26.707 26.707 0 0 0 3.6 7.74zm-.5-24.19a27.9 27.9 0 0 0-3.45 8c3.81-.8 7.43-.41 11.24-.06-2.63-2.51-5.71-4.14-7.47-7.51zm21.24 12.46c1.71.36 3.46.59 5.15 1.03a28.688 28.688 0 0 1 5.07 2.39c.47-2.906.5-5.865.09-8.78-3.09 2.46-6.65 3.77-10.24 5.27l-.07.06zm5.62-12.27a2.926 2.926 0 0 0 1.24-.89 23.605 23.605 0 0 0-5.92-5.61 41.622 41.622 0 0 1-2.22 11.2c1.9-1.85 3.97-3.7 6.9-4.7zm-12.12 11.84a1.59 1.59 0 0 0-.13-2.26 1.57 1.57 0 0 0 0 2.36c0-.02.06-.06.13-.14zm-1.47-18.35a5.49 5.49 0 0 0 .21-1.78 21.412 21.412 0 0 0-7.81 2.15 34.837 34.837 0 0 1 6.87 8.34c-.14-2.96-.27-5.9.73-8.75zm-5.12 34.2a4.216 4.216 0 0 0-.86 1.69 21.553 21.553 0 0 0 7.73 1.8 38.013 38.013 0 0 1-3-10.65 19.163 19.163 0 0 1-3.87 7.12zm14.72 1.11a24.197 24.197 0 0 0 6.12-5.91 33.88 33.88 0 0 1-9.93-4.5 53.954 53.954 0 0 1 2.46 4.94c.71 1.77.73 3.66 1.35 5.43zm-34.19-7.32c.246.442.304.965.16 1.45a2.539 2.539 0 0 1-1.47 2.46 8.64 8.64 0 0 1-3.19.6c-1.92.1-3.86.1-5.79.1-5.28-.013-10.567-.04-15.86-.08-10.467-.087-20.937-.23-31.41-.43a2691.191 2691.191 0 0 1-75.78-2.46l-7.5-.37c-1.9-.13-3.9-.12-4.9-2a2.93 2.93 0 0 1 1.36-4.13 7.808 7.808 0 0 1 3.16-.11l3.71.18 15.2.66a4146.327 4146.327 0 0 0 93.24 2.82c5.28.107 10.567.2 15.86.28 2.46.06 4.94-.02 7.41.06 1.17.05 2.33.05 3.5.05.92-.02 1.79 0 2.3.92z"
    class="cls-2"/></svg>
