<svg xmlns="http://www.w3.org/2000/svg" viewBox="0 0 350 300">
<defs><style>
.cls-1{fill:hsla(200,30%,80%,1)}
.cls-2{fill:hsla(200,10%,98%,1)}
</style></defs>
<rect width="350" height="300" class="cls-1" rx="20" ry="20"/>
<path d="M246.32 182.16a59.505 59.505 0 0 0-24.76-14.59 8.25 8.25 0 0 1-5.23-4.68 8.12 8.12 0 0 1 .29-7c8.29-16 13.26-34.83 13.15-49.84-.3-32.88-25.08-59.33-55.38-59.07-30.3.26-54.61 27.11-54.39 60.02.14 14.87 5.34 33.36 13.77 49.16a8.19 8.19 0 0 1 .33 7.07 8.321 8.321 0 0 1-5.31 4.72c-25.699 7.477-43.294 31.127-43.07 57.89v5c.115 12.312 10.158 22.216 22.47 22.16h133.67c12.439.012 22.497-10.131 22.38-22.57l-.05-6.19a59.743 59.743 0 0 0-17.87-42.08z" class="cls-2"/>
</svg>
