<svg xmlns="http://www.w3.org/2000/svg" viewBox="0 0 350 300">
<defs><style>
.cls-1{fill:hsla(200,30%,80%,1)}
.cls-2{fill:hsla(200,10%,98%,1)}
</style></defs>
<rect width="350" height="300" class="cls-1" rx="20" ry="20"/>
<path d="M112.21 135.13c13.06-5.79 20.29-22.35 16.18-37.06-4.11-14.71-18.09-21.92-31.16-16.17s-20.3 22.36-16.18 37.1c4.12 14.74 18.09 21.9 31.16 16.15zm-18.67-66.3C113 60.21 133.85 71 140 92.93c6.15 21.93-4.64 46.68-24.13 55.3-19.49 8.62-40.28-2.23-46.46-24.11S74 77.42 93.54 68.83zM165 92.47a74.975 74.975 0 0 0-2.03-9.42l-11.68-.94a55.338 55.338 0 0 0-4.43-9.11l5.08-12.67a59.137 59.137 0 0 0-5.87-6.69l-10.93 6a44.643 44.643 0 0 0-7.94-5l-.92-13.44a52.465 52.465 0 0 0-8.2-2.2l-7.23 11.32a42.62 42.62 0 0 0-9.34.41l-6.68-10.64A58.035 58.035 0 0 0 86.51 43l-1.64 13.54a54.802 54.802 0 0 0-8.22 5.73l-10.65-5a75.582 75.582 0 0 0-6.18 7.23l4.43 12.21a67.215 67.215 0 0 0-4.89 9.51l-11.76 2a83.754 83.754 0 0 0-2.46 9.6l9.31 7.59a66.43 66.43 0 0 0-.27 10.75l-9.72 8.43a76.692 76.692 0 0 0 2 9.41l11.68.89a56.145 56.145 0 0 0 4.43 9.11l-5.08 12.69a61.864 61.864 0 0 0 5.88 6.68l10.92-6a45.936 45.936 0 0 0 7.95 5l.92 13.43a51.32 51.32 0 0 0 8.19 2.2l7.24-11.23c3.119.201 6.251.064 9.34-.41L114.6 177a57.646 57.646 0 0 0 8.37-2.93l1.61-13.55a54.167 54.167 0 0 0 8.22-5.73l10.65 5a72.946 72.946 0 0 0 6.21-7.23l-4.45-12.21a66.527 66.527 0 0 0 4.89-9.5l11.76-2a82.882 82.882 0 0 0 2.46-9.6l-9.3-7.59c.375-3.57.465-7.165.27-10.75z" class="cls-2"/>
<path d="M291.18 169a88.494 88.494 0 0 1-2.38 14l10.79 11.69a112.83 112.83 0 0 1-5 12.11l-15.78.39a87.18 87.18 0 0 1-8.2 11.53l3.53 16.82a96.578 96.578 0 0 1-9.49 8.3l-13-8.56a71.835 71.835 0 0 1-11.84 6l-4.71 17.42a77.746 77.746 0 0 1-11.44 2.3l-6.75-15.2a58.742 58.742 0 0 1-12.37-1.22L193 257.93a68.11 68.11 0 0 1-10.31-4.42l1.31-17.77a59.651 59.651 0 0 1-9.46-8l-15.43 5.74a79.976 79.976 0 0 1-6.44-9.85l9-15.58a73.675 73.675 0 0 1-4.09-12.76l-15.12-3.44a102.01 102.01 0 0 1-.82-12.68l14.31-9.22a89.457 89.457 0 0 1 2.38-14l-10.75-11.69a110.49 110.49 0 0 1 5-12.11l15.77-.39a87.677 87.677 0 0 1 8.2-11.52l-3.55-16.9a96.709 96.709 0 0 1 9.49-8.29l13 8.55a71.717 71.717 0 0 1 11.84-6l4.68-17.44A77.447 77.447 0 0 1 223.53 78l6.74 15.19a57.016 57.016 0 0 1 12.31 1.23L254.17 81a68.11 68.11 0 0 1 10.31 4.42l-1.32 17.77a59.169 59.169 0 0 1 9.46 8l15.43-5.75a79.594 79.594 0 0 1 6.44 9.86l-9 15.58a73.598 73.598 0 0 1 4.09 12.75l15.15 3.44c.532 4.212.796 8.454.79 12.7zm-74.76-53.65c-27.22 7.65-46.03 38-42.06 67.88 3.97 29.88 29.25 47.93 56.4 40.32 27.15-7.61 45.96-37.99 42-67.87-3.96-29.88-29.18-47.94-56.34-40.33zm12 90.38c-18.24 5.09-35.2-6.96-37.82-27-2.62-20.04 10.02-40.4 28.22-45.5 18.2-5.1 35.15 6.97 37.76 27 2.61 20.03-9.96 40.36-28.16 45.48z" class="cls-2"/>
</svg>
