<svg xmlns="http://www.w3.org/2000/svg" viewBox="0 0 350 300">
<defs><style>
.cls-1 {fill:hsla(200,30%,80%,1);}
.cls-2 {fill:hsla(200,10%,98%,1);fill-rule:evenodd;}
</style></defs>
<rect width="350" height="300" class="cls-1" rx="20" ry="20"/>
<path d="M165 92.47l-9.71 8.44c.195 3.585.105 7.18-.27 10.75l9.3 7.59a82.882 82.882 0 0 1-2.46 9.6l-11.76 2a66.527 66.527 0 0 1-4.89 9.5l4.45 12.21a72.946 72.946 0 0 1-6.21 7.23l-10.65-5a54.167 54.167 0 0 1-8.22 5.73l-1.61 13.55a57.646 57.646 0 0 1-8.37 2.93l-6.67-10.64a43.246 43.246 0 0 1-9.34.41L91.35 178a51.32 51.32 0 0 1-8.19-2.2l-.92-13.43a45.936 45.936 0 0 1-7.95-5l-10.92 6a61.973 61.973 0 0 1-5.88-6.68L62.57 144a56.145 56.145 0 0 1-4.43-9.11L46.46 134a76.692 76.692 0 0 1-2-9.41l9.72-8.43a66.43 66.43 0 0 1 .27-10.75l-9.31-7.59a83.754 83.754 0 0 1 2.46-9.6l11.76-2a67.215 67.215 0 0 1 4.89-9.51L59.82 64.5A75.582 75.582 0 0 1 66 57.27l10.65 5a54.802 54.802 0 0 1 8.22-5.73L86.51 43a58.035 58.035 0 0 1 8.32-2.91l6.68 10.64a42.62 42.62 0 0 1 9.34-.41L118.08 39a52.465 52.465 0 0 1 8.2 2.2l.92 13.44a44.643 44.643 0 0 1 7.94 5l10.93-6a59.137 59.137 0 0 1 5.87 6.69L146.86 73a55.338 55.338 0 0 1 4.43 9.11l11.68.94a74.975 74.975 0 0 1 2.03 9.42zM93.54 68.83C113 60.21 133.85 71 140 92.93c6.15 21.93-4.64 46.68-24.13 55.3-19.49 8.62-40.28-2.23-46.46-24.11S74 77.42 93.54 68.83zm18.67 66.3c13.06-5.79 20.29-22.35 16.18-37.06-4.11-14.71-18.09-21.92-31.16-16.17s-20.3 22.36-16.18 37.1c4.12 14.74 18.09 21.9 31.16 16.15z" class="cls-2"/>
<path d="M305.52 159.77L291.18 169a88.494 88.494 0 0 1-2.38 14l10.79 11.69a112.83 112.83 0 0 1-5 12.11l-15.78.39a87.18 87.18 0 0 1-8.2 11.53l3.53 16.82a96.578 96.578 0 0 1-9.49 8.3l-13-8.56a71.795 71.795 0 0 1-11.84 6l-4.71 17.42a77.772 77.772 0 0 1-11.44 2.3l-6.75-15.2a58.742 58.742 0 0 1-12.37-1.22L193 257.93a68.11 68.11 0 0 1-10.31-4.42l1.31-17.77a59.651 59.651 0 0 1-9.46-8l-15.43 5.74a79.976 79.976 0 0 1-6.44-9.85l9-15.58a73.675 73.675 0 0 1-4.09-12.76l-15.12-3.44a102.01 102.01 0 0 1-.82-12.68l14.31-9.22a89.457 89.457 0 0 1 2.38-14l-10.75-11.69a110.49 110.49 0 0 1 5-12.11l15.77-.39a87.677 87.677 0 0 1 8.2-11.52l-3.55-16.9a96.709 96.709 0 0 1 9.49-8.29l13 8.55a71.717 71.717 0 0 1 11.84-6l4.68-17.44A77.447 77.447 0 0 1 223.53 78l6.74 15.19a57.016 57.016 0 0 1 12.31 1.23L254.17 81a68.11 68.11 0 0 1 10.31 4.42l-1.32 17.77a59.169 59.169 0 0 1 9.46 8l15.43-5.75a79.594 79.594 0 0 1 6.44 9.86l-9 15.58a73.598 73.598 0 0 1 4.09 12.75l15.15 3.44c.532 4.212.796 8.454.79 12.7zm-89.1-44.42c27.16-7.61 52.38 10.45 56.34 40.33 3.96 29.88-14.85 60.26-42 67.87-27.15 7.61-52.43-10.44-56.4-40.32-3.97-29.88 14.84-60.23 42.06-67.88zm12 90.36c18.2-5.12 30.77-25.45 28.16-45.48-2.61-20.03-19.56-32.1-37.76-27-18.2 5.1-30.84 25.46-28.22 45.5 2.62 20.04 19.58 32.09 37.82 27z" class="cls-2"/>
</svg>
