<svg xmlns="http://www.w3.org/2000/svg" viewBox="0 0 350 300">
<defs><style>
.cls-1 {fill: hsla(200, 30%, 80%, 1)}
.cls-2 {fill: hsla(200, 10%, 98%, 1)}
</style></defs>
<rect width="350" height="300" class="cls-1" rx="20" ry="20"/>
<path d="M273 233.26H77a18.52 18.52 0 0 1-18.52-18.52V85.26A18.52 18.52 0 0 1 77 66.74h196a18.52 18.52 0 0 1 18.52 18.52v129.48A18.52 18.52 0 0 1 273 233.26zm21.78-18.52V85.26A21.8 21.8 0 0 0 273 63.49H77a21.8 21.8 0 0 0-21.82 21.77v129.48A21.8 21.8 0 0 0 77 236.51h196a21.8 21.8 0 0 0 21.82-21.77zM273 70a15.28 15.28 0 0 1 15.3 15.26v129.48A15.28 15.28 0 0 1 273 230H77a15.28 15.28 0 0 1-15.3-15.26V85.26A15.28 15.28 0 0 1 77 70zM138.32 225.92V73.84a3.26 3.26 0 1 0-6.52 0v152.08a3.26 3.26 0 0 0 6.52 0zm-19-137a3.26 3.26 0 0 0-3.26-3.26H75.89a3.26 3.26 0 0 0 0 6.51h40.2a3.25 3.25 0 0 0 3.26-3.27zm0 12a3.26 3.26 0 0 0-3.26-3.26H75.89a3.26 3.26 0 0 0 0 6.52h40.2a3.26 3.26 0 0 0 3.26-3.3zm0 12a3.26 3.26 0 0 0-3.26-3.26H75.89a3.26 3.26 0 0 0 0 6.52h40.2a3.26 3.26 0 0 0 3.26-3.31zm126.77 12.65a3.26 3.26 0 0 0-3.26-3.25h-40.2a3.26 3.26 0 0 0 0 6.51h40.2a3.26 3.26 0 0 0 3.29-3.31zM200 138.29a3.26 3.26 0 0 0-3.26-3.26H156.5a3.26 3.26 0 1 0 0 6.52h40.19a3.26 3.26 0 0 0 3.31-3.26zm0 28.79a3.26 3.26 0 0 0-3.26-3.26H156.5a3.26 3.26 0 1 0 0 6.51h40.19a3.25 3.25 0 0 0 3.31-3.25zm-80.6-42.23a3.26 3.26 0 0 0-3.26-3.26H75.89a3.26 3.26 0 0 0 0 6.52h40.2a3.26 3.26 0 0 0 3.26-3.26zm0 12a3.26 3.26 0 0 0-3.26-3.26H75.89a3.26 3.26 0 0 0 0 6.52h40.2a3.26 3.26 0 0 0 3.26-3.27zm0 12a3.26 3.26 0 0 0-3.26-3.26H75.89a3.26 3.26 0 0 0 0 6.52h40.2a3.26 3.26 0 0 0 3.26-3.29zm49.1-37.59a3.27 3.27 0 0 0-.07-4.61l-8-7.77 8-8.26a3.26 3.26 0 1 0-4.65-4.62l-10.32 10.6a3.24 3.24 0 0 0 .06 4.6l10.32 10.05a3.25 3.25 0 0 0 4.61-.06zm46.1.06l10.32-10.05a3.24 3.24 0 0 0 .06-4.6L214.61 86a3.26 3.26 0 1 0-4.61 4.59l8 8.26-8 7.77a3.26 3.26 0 1 0 4.54 4.67zm-8-12.11a3.26 3.26 0 0 0-3.26-3.26h-28.81a3.26 3.26 0 1 0 0 6.52h28.79a3.26 3.26 0 0 0 3.26-3.29zm-18 26.34a3.26 3.26 0 0 0-3.26-3.25H156.5a3.26 3.26 0 1 0 0 6.51h28.78a3.26 3.26 0 0 0 3.26-3.29zm40.63 12.77a3.26 3.26 0 0 0-3.26-3.26h-18.85a3.26 3.26 0 1 0 0 6.52h18.79a3.26 3.26 0 0 0 3.26-3.29zm39.22 0a3.26 3.26 0 0 0-3.26-3.26h-28.85a3.26 3.26 0 1 0 0 6.52h28.79a3.26 3.26 0 0 0 3.26-3.29zm-89.84 14.12a3.26 3.26 0 0 0-3.26-3.26H156.5a3.26 3.26 0 0 0 0 6.52h18.79a3.26 3.26 0 0 0 3.26-3.29zm37.69 0a3.26 3.26 0 0 0-3.26-3.26H184.2a3.26 3.26 0 0 0 0 6.52H213a3.26 3.26 0 0 0 3.24-3.29zm-47.79 55.87a3.27 3.27 0 0 0-.07-4.61l-8-7.77 8-8.26a3.26 3.26 0 0 0-4.67-4.55l-10.32 10.59a3.25 3.25 0 0 0 .06 4.61l10.32 10.05a3.22 3.22 0 0 0 2.27.92 3.28 3.28 0 0 0 2.35-1.01zm71.08.06l10.32-10.05a3.25 3.25 0 0 0 .06-4.61l-10.32-10.59a3.26 3.26 0 1 0-4.67 4.55l8.02 8.23-8 7.77a3.25 3.25 0 0 0 2.27 5.59 3.22 3.22 0 0 0 2.26-.92zm-7.14-12.11a3.26 3.26 0 0 0-3.26-3.26h-28.85a3.26 3.26 0 1 0 0 6.52h28.79a3.26 3.26 0 0 0 3.26-3.29zM177.65 207l18.74-18.74a3.26 3.26 0 0 0-4.61-4.6L173 202.34a3.26 3.26 0 1 0 4.61 4.61z" class="cls-2"/>
</svg>
