<svg xmlns="http://www.w3.org/2000/svg" viewBox="0 0 350 300">
  <defs>
    <style>
      .cls-1 {
        fill: hsla(200, 30%, 80%, 1);
      }
      .cls-2 {
        fill: hsla(200, 10%, 98%, 1);
      }
    </style>
  </defs><rect width="350" height="300" class="cls-1" rx="20" ry="20"/><path
    d="M263.81 73.89A26.74 26.74 0 0 0 237 47.26H114a26.74 26.74 0 0 0-26.74 26.63v100.87h176.55zm-14.15 86.81H101.41V73.89a12.62 12.62 0 0 1 12.64-12.56H237a12.62 12.62 0 0 1 12.64 12.56zm3.12 92.04a23.32 23.32 0 0 0 22.28-30.15l-11.45-37.27H87.15l-12.07 36.86a23.3 23.3 0 0 0 22.14 30.56zM209.88 235a4.33 4.33 0 0 1-4.33 4.34h-61.09a4.34 4.34 0 0 1-4.34-4.34v-3.05a4.35 4.35 0 0 1 4.34-4.34h61.09a4.34 4.34 0 0 1 4.33 4.34z"
    class="cls-2"/><path d="M156.69 84.22v48.95l12.62-12.59 9.14 17.62 6.65-3.44-8.8-16.96h17.01l-36.62-33.58z" class="cls-2"/></svg>
