<svg xmlns="http://www.w3.org/2000/svg" viewBox="0 0 350 300">
  <defs>
    <style>
      .cls-1 {
        fill: hsla(200, 30%, 80%, 1);
      }
      .cls-2 {
        fill: hsla(200, 10%, 98%, 1);
      }
    </style>
  </defs>
  <g id="Livello_2">
    <g id="Livello_1-2"><rect width="350" height="300" class="cls-1" rx="20" ry="20"/><path
      d="M38.34 129.19v29.34a3.63 3.63 0 0 0 3.66 3.63h20.27a3.65 3.65 0 0 1 2.23.77L89 182.07a3.63 3.63 0 0 0 5.87-2.86V108.5a3.63 3.63 0 0 0-5.87-2.86l-24.5 19.14a3.6 3.6 0 0 1-2.23.78H42a3.63 3.63 0 0 0-3.66 3.63zm88.08-38.43l-.21.34a6.66 6.66 0 0 0 1.73 8.92c10.67 8 18.21 24.87 18.21 43.84s-7.47 35.64-18.05 43.71a6.66 6.66 0 0 0-1.71 8.8l.2.33a6.64 6.64 0 0 0 9.65 1.79c14-10.65 23.55-31.11 23.55-54.63S150.18 99.63 136 89a6.63 6.63 0 0 0-9.58 1.76z"
      class="cls-2"/><path
      d="M111.12 114.85a6.79 6.79 0 0 0 .42 7.8 36.54 36.54 0 0 1 .31 42 6.8 6.8 0 0 0-.36 7.61 6.72 6.72 0 0 0 11 .67 49.29 49.29 0 0 0-.45-58.76 6.73 6.73 0 0 0-10.92.68zm201.93 85.74a5 5 0 0 0-4.94-4.52c-6.83 0-9.4-1.67-10.45-2.71s-1.49-2.52-1.53-4.68a16.48 16.48 0 0 1 .46-3.7 64.56 64.56 0 1 0-13.29 11.51 18.63 18.63 0 0 0 4.3 6.83c4.48 4.56 11.38 6.9 20.34 6.9h.71a4.89 4.89 0 0 0 4.82-5.33zM212.54 160.4c-8.81 0-15.95-8.17-15.95-18.23S203.73 124 212.54 124s15.93 8.16 15.93 18.22-7.15 18.18-15.93 18.18zM248 193.54c-10.06 0-18.23-7.14-18.23-15.94s8.17-15.95 18.23-15.95 18.23 7.15 18.23 15.95S258 193.54 248 193.54zm-8.65-49.84a8.77 8.77 0 1 1 7.21 7.14 8.79 8.79 0 0 1-7.24-7.14zm8.65-21c-10.06 0-18.23-7.15-18.23-16s8.14-15.9 18.23-15.9 18.23 7.13 18.23 15.94S258 122.69 248 122.69zm19.48 19.48c0-10.06 7.12-18.22 15.94-18.22s15.94 8.16 15.94 18.22-7.13 18.23-15.94 18.23-15.97-8.18-15.97-18.24z"
      class="cls-2"/></g>
  </g>
</svg>
