<svg xmlns="http://www.w3.org/2000/svg" viewBox="0 0 350 300">
  <defs>
    <style>
      .cls-1 {
        fill: hsla(200, 30%, 80%, 1);
      }
      .cls-2 {
        fill: hsla(200, 10%, 98%, 1);
      }
    </style>
  </defs>
  <g id="Livello_2">
    <g id="Livello_1-2"><rect width="350" height="300" class="cls-1" rx="20" ry="20"/><path d="M190.08 139.65v95.03l24.48-24.45 17.77 34.23 12.91-6.69-17.1-32.93h33.02l-71.08-65.19z" class="cls-2"/><path
      d="M262.83 160.06c.17-.91.28-1.8.41-2.74.09-.49.15-1 .2-1.47.13-.87.22-1.74.34-2.61.05-.66.1-1.35.12-2s.12-1.42.15-2.16c.07-1.39.11-2.83.11-4.3s0-2.82-.09-4.24c-.05-.85-.11-1.76-.19-2.61-.05-.48-.05-.95-.09-1.41-.11-1.11-.26-2.2-.4-3.33a3.92 3.92 0 0 0-.06-.52c-.15-1.19-.33-2.35-.56-3.52v-.22a89.2 89.2 0 0 0-79.7-73h-.15c-1.24-.11-2.48-.18-3.72-.26s-2.76-.11-4.15-.11-2.8 0-4.17.11-2.5.15-3.72.26h-.17a89.2 89.2 0 0 0-79.68 73 1.92 1.92 0 0 0 0 .22c-.22 1.17-.41 2.33-.56 3.52 0 .16 0 .33-.07.52-.15 1.13-.28 2.22-.37 3.33 0 .46-.08.93-.11 1.41-.08.85-.13 1.76-.19 2.61-.06 1.42-.11 2.83-.11 4.24s0 2.81.11 4.19c.06.94.11 1.85.19 2.77 0 .43.07.82.11 1.27.09 1.14.22 2.29.37 3.46a1 1 0 0 1 0 .39c.17 1.26.39 2.48.6 3.7a.37.37 0 0 0 0 .08 89.22 89.22 0 0 0 71.87 71.86l.83.11c.8.14 1.65.26 2.48.41.57.07 1.13.16 1.74.2.78.09 1.58.2 2.36.26s1.51.13 2.27.18 1.24.11 1.86.13c1.44.08 2.86.11 4.31.11h.28v-20.8H175a67.72 67.72 0 0 1-11.71-1 183 183 0 0 1-7.29-35.34c6.17.35 12.52.58 19 .58h.28v-11.87H175q-10.7 0-20.08-.67-.66-9.39-.67-20.06t.67-20.07q9.41-.67 20.08-.67t20 .63c0 .37.06.72.09 1.07a14.42 14.42 0 0 1 5 3l7.32 6.7c-.11-3.29-.26-6.5-.44-9.68a180.49 180.49 0 0 1 35.37 7.29 67.49 67.49 0 0 1 1 11.69 71.47 71.47 0 0 1-1 11.69c-2.79.89-5.85 1.77-9.18 2.61l7 6.43 16.5 15.13a90 90 0 0 0 6.08-20 4.24 4.24 0 0 1 .09-.5zm-113-78.89a216.55 216.55 0 0 0-5.83 32.57 213.26 213.26 0 0 0-32.53 5.79 68.72 68.72 0 0 1 38.32-38.36zm0 127.12A69 69 0 0 1 111.44 170a218.33 218.33 0 0 0 32.56 5.73 219.32 219.32 0 0 0 5.77 32.56zM143 163.73a183 183 0 0 1-35.35-7.3 67.5 67.5 0 0 1 0-23.38 180.09 180.09 0 0 1 35.35-7.29c-.38 6.13-.6 12.5-.6 19s.21 12.81.6 18.97zm32-51.6c-6.5 0-12.85.22-19 .59a181.86 181.86 0 0 1 7.29-35.36 67.72 67.72 0 0 1 11.71-1 69 69 0 0 1 11.65 1 181.86 181.86 0 0 1 7.35 35.36c-6.18-.37-12.52-.59-19-.59zm31 1.61a219.17 219.17 0 0 0-5.78-32.57 68.72 68.72 0 0 1 38.32 38.36 213.85 213.85 0 0 0-32.54-5.79z"
      class="cls-2"/></g>
  </g>
</svg>
