<svg xmlns="http://www.w3.org/2000/svg" viewBox="0 0 350 300">
<defs><style>
.cls-1{fill:hsla(200,30%,80%,1)}
.cls-2{fill:hsla(200,10%,98%,1)}
</style></defs>
<rect width="350" height="300" class="cls-1" rx="20" ry="20"/>
<path d="M102.27 82.68a6.73 6.73 0 0 1-6.73 6.73H72.18a6.73 6.73 0 0 1-6.73-6.73A6.72 6.72 0 0 1 72.18 76h23.36a6.72 6.72 0 0 1 6.73 6.72zm0 26.93a6.73 6.73 0 0 0-6.73-6.73H72.18a6.73 6.73 0 0 0-6.73 6.73 6.73 6.73 0 0 0 6.73 6.73h23.36a6.73 6.73 0 0 0 6.73-6.73zm0 26.92a6.72 6.72 0 0 0-6.73-6.72H72.18a6.72 6.72 0 0 0-6.73 6.72 6.73 6.73 0 0 0 6.73 6.73h23.36a6.73 6.73 0 0 0 6.73-6.73zm0 26.92a6.72 6.72 0 0 0-6.73-6.72H72.18a6.72 6.72 0 0 0-6.73 6.72 6.73 6.73 0 0 0 6.73 6.74h23.36a6.73 6.73 0 0 0 6.73-6.74zm0 26.93a6.73 6.73 0 0 0-6.73-6.73H72.18a6.73 6.73 0 0 0-6.73 6.73 6.73 6.73 0 0 0 6.73 6.73h23.36a6.73 6.73 0 0 0 6.73-6.73zm0 26.92a6.72 6.72 0 0 0-6.73-6.72H72.18a6.72 6.72 0 0 0-6.73 6.72 6.73 6.73 0 0 0 6.73 6.7h23.36a6.73 6.73 0 0 0 6.73-6.73zM284.44 74.13a34 34 0 0 0-34-34H117.85a34 34 0 0 0-34 34v.59h8.58a9.7 9.7 0 1 1 0 15.94h-8.57v11h8.59a9.69 9.69 0 1 1 0 16h-8.59v11h8.58a9.7 9.7 0 1 1 0 15.95h-8.58v11h8.58a9.7 9.7 0 1 1 0 16h-8.58v11h8.58a9.69 9.69 0 1 1 0 15.94h-8.58v11h8.59a9.57 9.57 0 0 1 5.5-1.72 9.69 9.69 0 1 1-5.5 17.67h-8.59v.57a34 34 0 0 0 34 34h132.7a34 34 0 0 0 34-34zm-26.62 22v113a5.63 5.63 0 0 1-5.6 5.67H127.65a5.63 5.63 0 0 1-5.61-5.67V96.1a5.63 5.63 0 0 1 5.61-5.66h124.57a5.62 5.62 0 0 1 5.6 5.66zm-4.45 11v97.21a4.87 4.87 0 0 1-4.87 4.88H140a4.88 4.88 0 0 1-4.89-4.88v-97.26a4.88 4.88 0 0 1 4.89-4.88h108.5a4.87 4.87 0 0 1 4.87 4.88zM243.2 176.6V112h-98.76v65.71a20.63 20.63 0 0 0 .67 5.11c3.2-.86 6.7-2.22 10.74-3.61-2.16-1.13-6.19-6.16-6.19-6.16a59.23 59.23 0 0 0 12.33.51l-.51-3.35c-1.76.23-4.25.67-7.95 1.42a25 25 0 0 0 3.61-3.69c-6.2 1.07-10.59 2.12-12.15 2.51a97.37 97.37 0 0 1 10.48-7.81 8.06 8.06 0 0 1 4.7-1.13l-2.93-19.41c-.29-.45-.59-.91-.9-1.37 0 0 13.8 7.35 15.76 20.65l4.32-4.81a29.12 29.12 0 0 1 10.48-5l17.65 3.86s11.59-6.07 14.9-8.82 6.62 1.64 6.62 1.64l15.82 21c-6-.34-21.23-1.29-38.24-3.29a152.2 152.2 0 0 0-31.36-.06 23 23 0 0 1-.6 4c-6.33.84-4.63-.37-9.73.26l.51 3.38c5.18-.38 10.95-1.61 15.29-4.72a25.05 25.05 0 0 1-4 6.06 77.09 77.09 0 0 1 8.93-.57c12-.07 20.34 4.84 30.46 4.84 12.42-.01 23.31-4.62 30.05-2.55zm-85.28-33.41l2.77 18.36c1.6-4.77 1.58-10.94-2.77-18.36z" class="cls-2"/>
</svg>
