<svg xmlns="http://www.w3.org/2000/svg" viewBox="0 0 400 400"><defs><style>.cls-1{fill:none}.cls-2{fill:#a3becc}.cls-3{fill:#f5f8fa}.cls-4{clip-path:url(#clip-path)}.cls-5{fill:#7da1b2}</style><clipPath id="clip-path"><circle cx="200" cy="200" r="180" class="cls-1"/></clipPath></defs><circle cx="200" cy="200" r="200" class="cls-2"/><circle cx="200" cy="200" r="190" class="cls-3"/><path d="M279.946 369.681c-.09.451-.19.901-.3 1.422l-1.001.21.76 1.121c-1.141 1.001 1.382 1.001.761 2.002-.771-.931-1.001-.931-1.712.08l.731.13-1.001 1.321.13.21.831-.15a8.192 8.192 0 0 1-.19 1.912 7.678 7.678 0 0 1-1.081 1.602l.49.87c-.87-.09-1.851-.14-2.001.881-.161 1.301.74 2.072 1.921 2.643l-.62.881-.651-1.292h-.27c0 .251-.19.571-.08.721a1.463 1.463 0 0 1-.1 1.912l-1.001.15v.17l1.091.431-.751.81.18.221 1.001-.321-1.261 3.213.821 1.141-.22.18-.701-.76c-.481.781-1.321 1.191-.891 2.342a3.25 3.25 0 0 1-.08 1.922 5.415 5.415 0 0 1-.931 1.361h-7.567c.283-.654.533-1.322.751-2.002.06-.22-.171-.52-.271-.791-.1-.27-.27-.48-.21-.58a7 7 0 0 1 1.321-1.782c.851-.67 1.282-1.521.741-2.382a1.611 1.611 0 0 1 .38-2.482c-.75-.721-.78-1.522-.19-2.683.17-.34.231-.741.371-1.101.079-.19.173-.374.28-.551.19-.32.4-.62.59-.93l-.23-.171-.44.291-.28-.641a.469.469 0 0 1 .09-.16c.55-.31 1.001-.541.931-1.401-.061-.391.46-.941.84-1.272.381-.33.431-.81 0-1.321l-.44.791c-.15-.13-.3-.19-.33-.29-.391-1.402.08-3.003 1.051-3.524-1.091-.36-.481-1.001-.271-1.611l-.56-.391c.202-.359.443-.695.721-1.001 1-.9 1.05-.88.13-2.001.48-.701 1.211-1.442-.06-2.193l.49-.33-.621-1.061.221-.1.39.33.12-.07a6.62 6.62 0 0 0 .06-2.732c-.07-.06-.24-.11-.24-.15.06-.591.11-1.182.22-1.762.104-.462.238-.917.401-1.361a7.76 7.76 0 0 0 .45-2.413c-.22-1.491 1.391-2.842.17-4.304l1.181-.68-.73-.241c.15-1.161.28-2.192.41-3.233.06-.6.12-1.191.19-1.791.012-.196.063-.386.15-.561a11.659 11.659 0 0 0 1.342-3.473c.09-.351.49-.621.76-.921a12.788 12.788 0 0 0 1.792-2.332c.289-.441.55-.898.781-1.372a2.8 2.8 0 0 0 .11-.951l1.731-.51v-.541c.371-.24 1.382.461 1.001-.94l.351.15.36 1.001 1.001-.461c-.29 1.201-.53 2.172-.781 3.203l.571.12-.811.571c.661.741.811 1.361 0 2.102-.3.26-.14 1.001-.22 1.531-.08.531-.21 1.201-.35 1.932a3.745 3.745 0 0 1-.061 2.573c-.23.42-.4 1.271-.19 1.451.572.496.755 1.308.451 2.002a1.231 1.231 0 0 0 .53 1.692l-.61.78 1.321.901v.33c-1.091-.31-1.361.331-1.291 1.071.1 1.061.36 2.112.58 3.294l-.951.07c.411 1.301-.3 2.132-1.381 2.842l-1.001-.4.35 1.001-.88.06-.081.24 1.532.521.06-.681h.22c.09.821.18 1.642.29 2.703l-1.251.44 2.593 1.521c-.671.721-.641 1.942-1.942 1.742.145-.202.313-.386.5-.55.531-.341.641-.741.221-1.512-.441.641-.791 1.151-1.101 1.672-.05.1.23.3.37.43zM86.762 397.067l.431-1.001-.14-.08-1.001.941-.251-.19c.261-.711 1.392-1.502-.31-2.002l2.783-1.181-1.191-.451 1.201-.65.31.801c.24-1.102 2.002-2.002.401-3.244l2.061-1.201c-.33-1.481.421-2.342 1.532-3.003l-.881-1 .731.11a.56.56 0 0 0 .68-.771c-.62-.741.071-1.201.141-1.652l2.582-.6c-.07-.481-.36-1.111-.17-1.362.43-.55.881-1 .671-1.761 0-.07.55-.351.87-.461.243-.036.489-.036.731 0v-1.331l.551.19.4-2.522c1.001.35.5.941.48 1.491.248-.323.441-.684.571-1.071.26-.59.56-1.171.801-1.761.172-.335.265-.705.27-1.081a2.006 2.006 0 0 0-.44-.761c.36-.13 1.161-.18 1.291-.501a13.84 13.84 0 0 0 .54-2.772c1.462.63 1.562-1.332 2.673-1.632l-1.001-.11c-.581-1.471.65-2.072 1.241-3.003l1.151.451c.163-.425.35-.839.561-1.242.42-.72.44-.71 0-1.201a2.513 2.513 0 0 1-.451.771c-.08.08-.59-.1-.61-.22a3.802 3.802 0 0 1 1.731-3.333l.11 1.231c.301-.24.481-.471.711-.541 1.181-.37 1.391-.75.721-1.721a1.883 1.883 0 0 1-.311-1.872c0-.12-.33-.46-.57-.581-.24-.12-.451 0-.681 0-.48.901-1.091.351-1.701.08l-1.001 2.102c-.741.631-1.702 1.051-1.762 1.582a1.672 1.672 0 0 1-1.541 1.652l.71.94c-.59.131-1.061.201-1.511.341-.17 0-.411.28-.401.4a1.09 1.09 0 0 1-1.001 1.281.413.413 0 0 0-.23.291c-.19 1.001-.37 2.082-.56 3.213-1.141-.571-1.732-.14-1.912 1.001l.53.35-1.761 2.482-.781-.15c.094.22.246.411.44.551.196.217.377.448.541.69l-1.882-.1a6.8 6.8 0 0 0-.66 2.002c0 .881-.291 1.281-1.001 1.361a6.336 6.336 0 0 1-.101 1.001 8.362 8.362 0 0 1-.34 1.001l-.57-.25c0 .411-.08.741-.111 1.071-.08.771-1.701.801-1 2.002h-.101l-.89 1.281 1.161.811a.912.912 0 0 1-.751.16.92.92 0 0 0-1.321.871c0 .691.55 1.581-.561 2.002v.27a6.22 6.22 0 0 1-.32.801 7.32 7.32 0 0 1-.41.641l1.341.87h-2.002l.18.321-.37 1.521.861-.45.25.2a3.104 3.104 0 0 1-.581.701c-.64.44-1.321.81-2.002 1.211.631 1.001.471 2.812-.25 3.233-.721.42-1.001 1.001-.671 2.002l1.762-.311v.871zm271.578-39.728l.431.601.821-1.081.19.14-.21.751 1.551.66a6.642 6.642 0 0 0-.681-1.671c-.59-.731.151-.931.481-1.331l.12 1.421.45-.691.611.771.07-.28h1.231c.2 0 .571-.07.581-.14.025-.507.025-1.015 0-1.522l.55-.19v-5.635a2.826 2.826 0 0 1-2.482-.15 3.125 3.125 0 0 0-1.682-.531 5.45 5.45 0 0 1-3.653-1.591l-1.081.41-.671-2.002c-.07-.06-.31-.25-.57-.43a12.763 12.763 0 0 0-1.262-.811c-.34-.18-.74-.22-1.081-.391a3.763 3.763 0 0 0-4.003.441c-.601.58-1.372 1.001-2.002 1.531-.332.248-.6.57-.781.941-.551 1.462.651 2.633.761 4.004 0 .12.36.21.47.27l.681-.6c.145.208.309.403.49.58.258.213.537.401.831.561.4.23.821.44 1.261.67l2.342-.57-.39.891.661.47c-.891.441-.541.781.12 1.321l.31-1.921h2.052v.23l-1.431.07.47.931 1.422-.761 1.101 1.171-.641.471c1.001.82 2.112.79 3.443-.191-.29 1.222.331 2.433-.891 3.244zm-64.661 39.718l-.511-2.002c-.22.591-.57 1.001-1.331.621-.13-.07-.45.23-.771.42l-.79-.72a1.493 1.493 0 0 0 1.912-1.212c.64-.05 1.481 0 1.511-.14a6.841 6.841 0 0 0 0-1.751h-.35l.13 1.811c-.341-.44-.661-.66-.661-.89 0-.841.06-1.672.11-2.513a.44.44 0 0 1 .05-.09l.721-.18.11-.32a14.045 14.045 0 0 0-1.902-.791c-.19-.06-.5.32-.75.51 1.161 0 1.291.15 1.001 1.131h-.881l.15.911-.621-.54c-.17.48-.28 1.341-.51 1.371-.911.12-1.221.721-1.512 1.411-.42 1.001-.82 1.942-1.231 2.913zm70.067 0c-.051-.21-.091-.43-.161-.64-.07-.211-.13-.161-.2-.241.621-.54.421-1.281.491-2.002l.17-1.431.5-.15v-3.003h-.52l-.29-1.231-.851.691-.251-.131c0 .601.061 1.202.151 1.802.079.253.19.496.33.721l-.901.07.691 1.311-.851-.41c.122.375.186.766.19 1.161-.2 1.161-.48 2.302-.731 3.453zm-113.618-3.563c-.501-1.632-.501-1.632-1.462-1.662.711 1.001-.24 1.111-.811 1.482l.581.43a6.494 6.494 0 0 0-1.221.541c-.931.65-1.532 1.431-.711 2.582a.407.407 0 0 1 0 .19h1.812l-.511-1.451h1.081l-.16 1.451h.801c0-.12 0-.32.12-.35.891-.431.641-.911.09-1.422-.18-.17-.32-.36-.53-.6l1.431-.12c-.25-.451-1.501-.29-.53-1.091zm114.418-10.931l-.51.421c-.3.64-.641 1.271-.921 1.922-.461 1.111-.08 1.711 1.141 1.821.1 0 .19 0 .29.06zm0-3.833a3.986 3.986 0 0 0-.42 1.001 8.964 8.964 0 0 0 0 1.371h-.2l-.08-.841a.768.768 0 0 0-.241.661c.161.6.731 1.191 0 1.762l.491.33.51-.421zm-.81 9.679l.81-.41v-.401l-1.351-.36c-.38 1.211-.32 1.311.551 1.151zM273.69 68.956c.218.629.51 1.231.871 1.791l1.481 3.003a.921.921 0 0 1 .11.38c.019.979.33 1.93.891 2.733.255.735.424 1.497.501 2.272.15.551.31 1.311.71 1.542 1.522.85 1.532 2.182 1.582 3.643.116.867.324 1.72.62 2.543.131.47.501 1.071.331 1.381-.701 1.331-.18 2.362.62 3.413l-.47.531c.25 1.001.47 1.751.691 2.562.22.811.35 1.361.53 2.002.066.153.11.315.13.48 0 1.462.601 2.883.2 4.395-.011.497.092.989.301 1.441.1.38.28.741.38 1.121.23.941.5 1.882.641 2.833a3.098 3.098 0 0 1-.281 1.161c.781 2.132.261 4.184-.1 6.116l.901 1.441-.821.16c.461.761.921 1.492 1.372 2.232-.561 1.001-.391 2.583-2.203 2.493a340.3 340.3 0 0 0 1.822 2.582c.148.63.215 1.275.2 1.922a5.404 5.404 0 0 1-.69 1.852 4.245 4.245 0 0 0-.481 3.133c.169.71.231 1.443.181 2.172-.191 1.871-.111 2.122 1.541 3.103.591.35.54 1.001-.13 1.661-.671.661-.701.691-.791 1.321-.303.431-.58.879-.831 1.342-.63 1.381-1.001 2.872-2.192 4.004-.64.58-1.001 1.471-1.581 2.132a3.31 3.31 0 0 1-1.392.85c-1.471.491-1.661.811-1.401 2.313.26 1.501.31 2.952.621 4.404a10.312 10.312 0 0 0 1.121 3.003c.27.47 1.001.7 1.621 1.001a34.384 34.384 0 0 1 3.684 1.621c1.641 1.001 3.153 2.222 4.704 3.353.21.151.383.351.501.581a7.881 7.881 0 0 1 .39 5.005 14.167 14.167 0 0 1-4.414 7.417 15.64 15.64 0 0 1-1.912 1.531c-.493.282-.653.92-.35 1.401a3.575 3.575 0 0 1-.601 4.254c-.45.492-.875 1.006-1.271 1.542a1.547 1.547 0 0 0-.27.721c-.17 1.251-.261 2.512-.481 3.753-.07.391-.44.731-.68 1.101-.271-.35-.731-.68-.781-1.061-.24-2.002-.451-4.004-.521-6.006-.06-1.561.14-3.132.16-4.694 0-.671.341-.811.871-.811a3.093 3.093 0 0 0 3.394-3.363 9.576 9.576 0 0 0-.161-1.491c-.16-1.282-.39-2.563.491-3.714.1-.12.2-.34.15-.45a60.494 60.494 0 0 0-1.652-3.444c-.08-.15-.56-.19-.8-.12-.241.07-.261.471-.201.651.331 1.001-.27 1.541-.86 2.232a4.504 4.504 0 0 0-.701 2.002 8.35 8.35 0 0 0 0 1.581l-.37.121a5.219 5.219 0 0 1-.611-1.642 6.302 6.302 0 0 0-.861-2.723 34.59 34.59 0 0 1-1.581-4.304c-.601-1.911-1.001-3.903-1.682-5.775a22.933 22.933 0 0 0-2.222-4.114c-.701-1.101-.691-1.532.3-2.462a9.74 9.74 0 0 0 1.782-2.122 2.811 2.811 0 0 1 1.772-1.322 1.301 1.301 0 0 0 1.001-1.501c-.271-2.663 1.311-4.294 3.193-5.776a.902.902 0 0 0 .33-.72c-.12-.401-.37-1.001-.641-1.081a3.006 3.006 0 0 0-2.002.2c-1.181.851-2.162 2.002-3.273 2.903a98.1 98.1 0 0 1-3.002 2.342 2.348 2.348 0 0 1-.911.2 3.644 3.644 0 0 1-.13-.911c.32-2.802.62-5.595 1-8.388.181-1.341.561-2.652.811-4.004.131-.44.131-.91 0-1.351a2.324 2.324 0 0 1 .25-2.332 1.14 1.14 0 0 0-.17-1.622c-1.251-.68-.39-1.151 0-1.721.371-.521.705-1.066 1.001-1.632l1.001-1.511-1.371-.731-.41 3.273h-.321a7.74 7.74 0 0 1-.29-1.561 8.781 8.781 0 0 1 .47-1.782l-.76.641-.431-1.232-.44.511c.36-.821.721-1.652 1.131-2.552l1.531.65c-.27-.32-.45-.45-.43-.53.39-1.652-.701-2.273-1.902-2.923-1.001-.561-1.101-1.211-.55-2.583.815.011 1.629-.1 2.412-.33.671-.32 1.061-.36 1.531.21.129.135.291.232.471.281.23.72.4 1.271.52 1.661l1.922-.62.27.31-.7 1.151 1.001-.1.32.09c-.15-1.001-.29-1.902-.42-2.763-.551-.44-1.592.691-1.642-.51l-2.112-.811c.05-.13.11-.39.17-.4 1.001 0 1.191-.681 1.362-1.522.05-.29.72-.57 1.141-.64 1.111-.201 1.691-.831 1.521-1.822a3.31 3.31 0 0 0-2.002-1.722 4.003 4.003 0 0 1-2.833-1.061 4.68 4.68 0 0 1-.4-.68l1.001.42c.17-.711.4-1.151-.23-1.892-.631-.741-.631-2.002-.941-3.003a1.581 1.581 0 0 0-.421-.66c-.23-.221-.54-.361-.79-.561 0 0 .2-.45.3-.45.436.053.868.14 1.291.26l-.68-1.451h-.721c-.35-.541-.511-1.101-.871-1.292-1.201-.65-.931-1.801-1.091-2.792l1.842-.761.13.17-.561.821 1.472-.33.14.27c.13-.26.39-.541.36-.781a2.114 2.114 0 0 0-.48-1.181c-.17-.17-.671-.09-1.001 0-.33.09-.841.531-.921.46-1.001-.93-1.231.441-1.872.561a6.507 6.507 0 0 0 0 1.151l-1.051.771c-.21-.881-.42-1.742-.62-2.613a2.64 2.64 0 0 1-2.002-1.661 3.418 3.418 0 0 0-.881-1.342 17.029 17.029 0 0 0-2.002-1.291l.721-2.002c-.861-.22-1.722-.47-2.593-.65-.871-.18-.71-.531-.21-1.151-1.451 0-1.241-.711-.771-1.572-.861-.37-.821-1.001-.69-1.802.1-.51.19-1.101-.531-1.331-.08 0-.19-.15-.18-.22a3.004 3.004 0 0 0-1.251-2.913c-.23-.19.13-1.001 0-1.431-.23-.73-.511-1.443-.841-2.132-.771.53-.891-.18-1.001-.601a7.841 7.841 0 0 1 0-1.621l.751-.19c-1.382.25-1.512-.891-1.942-1.672 0-.06 0-.16-.06-.19a3.536 3.536 0 0 1-1.432-2.593c-.24-1.001-1.071-1.361-1.391-2.162a1 1 0 0 0-.47-.42 1.461 1.461 0 0 1-1.141-1.091c-.1-.371-.831-.651-1.332-.791-.65-.18-1.381-.891-1.251-1.501.05-.211.29-.391.511-.681a.43.43 0 0 0-.211-.26c-.53-.271-1.001-.501-.84-1.251 0-.251-.321-.671-.601-.841a24.329 24.329 0 0 1-2.402-1.332 5.058 5.058 0 0 1-1.001-1.561c-.751-.1-1.542 0-1.692-1.121 0-.28-.871-.651-1.331-.651-.741 0-1.121 0-.901-.911 0-.08-.43-.44-.57-.39a3.123 3.123 0 0 1-3.003-.731c-1.492.251-1.652.171-2.923-1.461-.418.46-1.15.431-1.532-.06a.78.78 0 0 0-.71-.11 1.001 1.001 0 0 1-1.592-.501l-.52 1.061-1.201-1.001a2.058 2.058 0 0 1-2.102-.16 1.162 1.162 0 0 0-1.732.861c-.561-.721-1.001-.891-1.612 0-.3.41-1.161.4-1.941.641-.811 1.751-1.692 2.162-3.103 1.871.44-1.091.84-1.331 1.851-1 .083-.273.147-.55.191-.831v-1.001l-.931.42-.15-.35c-.281.38.1 1.681-1.001.65-.09-.08-.601.291-.851.581s-1.001-.611-.651.781c-.771-.741-1.181-.661-1.661 0-.221.3-.861.33-1.322.37-.4.003-.8-.04-1.191-.13a8.091 8.091 0 0 1 0-.881c.033-.206.09-.407.17-.6.201.08.392.18.571.3.09.07.07.29.16.35.217.108.442.201.671.28a2.05 2.05 0 0 0 .06-.81 8.952 8.952 0 0 0-.561-1.121.81.81 0 0 0-1.391 0c-.16.2-.3.43-.46.63h-.191l-.77-.931-.301.14.13 1.742h-.14l-.861-2.002c-.59.841-1 1.602-2.132 1.352-.18 0-.43.25-.77.46a1.242 1.242 0 0 0-1.682.13c-.24.2-.771 0-1.241 0 0 .671-.47.861-1.081.43a.73.73 0 0 0-1.111.111c-.19.17-.451.27-.661.43-.67.52-1.001.4-1.001-.36l-2.172-.581.11-.54-.2-.131-1.481 1.782-.27-1.411-.741.25-.441-1.091.581-.2v-.24c-.26 0-.701-.211-.771-.121a7.07 7.07 0 0 0-.55 1.262c-1.522 1.001-3.203 2.002-5.005.12-.17.23-.26.37-.35.5l-.241.431a2.926 2.926 0 0 1-.17-2.853c.25-.541-.12-1.371-.21-2.072h-.28l-.451.771c-.3-1.542-.57-3.003-.891-4.725-.75 1.231-.69 2.132-.09 2.873.181.22.361.701.251.851-.411.59-.1 1.601-1.071 1.842-.091 0-.141.21-.181.33-.43 1.321-1.501 1.752-2.902 1.081.51-.23 1.401.14 1.331-.701h-1.762l-.26.651-.861-1.001-1.301.45.22-2.592-.46-.12c-.1.26-.2.52-.291.78l-.39 1.212-1.001-.541-.771.561-.57-1.091-.701 1.751c.341 0 .491 0 .581.07.155.12.299.255.43.401a1.682 1.682 0 0 1-.52.18h-1.372l-.37-.671c-1.001.301-2.002.561-2.202 1.782 0 .21-.601.29-.901.47-.52.331-1.001.691-1.722 1.161l.111-.92-1.192-.451v1.001l-.58-.39h-.06c.23 1.121-1.001 1.381-1.311 2.262-.253.511-.724.88-1.282 1.001a25.557 25.557 0 0 1-3.283.22l.2 1.001a6.114 6.114 0 0 0-3.753 1.001l-.491-2.002c-.33.451-.65.701-.61.881.25 1.241-.511 1.311-1.402 1.271a1.805 1.805 0 0 0-.36 0l-.21 1.932-2.152-.16-.17.861-2.503-.451s-.08 0-.09.08c-.13 1.231-.921 1.672-2.002 2.232-.64.341-.881.611-1.431.121a1.266 1.266 0 0 1-.29-.391c-.17-.4-.321-.821-.501-1.281-.801.38-1.251 1.571-2.002.18l-.941 1.922.571.34-1.001.901-.621-1.631a2.887 2.887 0 0 1-1.211 1.671c-.66.421-1.121.691-1.861.38l-.221 1.082-1.301-.461-.24.771-2.462-.501v.411c-.591.52-1.001.951-1.482 1.291-.3.21-.781.22-1.001.47-1.101 1.101-2.142 2.253-3.203 3.384-.477.428-.913.9-1.301 1.411-1.001 1.672-2.002 3.403-3.003 5.105-1.361 2.312-2.823 4.564-4.084 6.936a42.804 42.804 0 0 0-1.852 4.605 23.967 23.967 0 0 0-1.131 3.003c-.79 3.133-1.581 6.286-2.182 9.459-.52 2.752-.771 5.565-1.151 8.338-.1.69-.27 1.381-.34 2.071a44.671 44.671 0 0 0-.08 10.42c.25 1.872.33 3.764.42 5.656.19 4.444.26 8.888.541 13.332.11 1.862.63 3.714.931 5.576.11.67.11 1.371.16 2.052 0 .51.08 1.001.15 1.751l-2.302.231v1.711a.998.998 0 0 1-.311.701c-1.271.761-.83 2.002-.83 3.053.066.347-.006.705-.201 1.001a2.173 2.173 0 0 0-.26 1.811c.4.911-.28 1.071-.711 1.362a8.988 8.988 0 0 1-1.211.4c-.417.233-.818.494-1.201.781l-1.701-1.552c.56-.89-.321-2.272.78-3.253-1.091-2.392.431-4.904-.2-7.337 1.131-.901.461-2.072.511-3.113v-1.771c-.801-.731.76-1.141.47-2.002l-.54-.18.75-.831v-5.696c0-.11.29-.22.21-.16.08-.931.201-1.651.201-2.372 0-.721-.181-1.241-.191-1.862a3.445 3.445 0 0 1 .241-1.361 2.682 2.682 0 0 0 .08-2.172 12.215 12.215 0 0 1-.21-3.053c0-.36-.161-.711-.191-1.061 0-.651 0-1.311-.07-1.942-.16-1.131-.47-2.242-.58-3.373-.11-1.131-.761-2.362-.331-3.794.431-1.431.161-3.163.191-4.754a6.51 6.51 0 0 0-.06-1.081 5.798 5.798 0 0 0-.301-.921c.721-1.111.911-3.483.23-4.224 1.712-.871 1.512-2.452 1.522-4.004a7.027 7.027 0 0 1 .31-2.282c.411-1.141 1.001-2.222 1.542-3.333.11-.241.28-.581.19-.751-.541-1.001 0-1.872.26-2.783.134-.315.298-.617.491-.9.218-.38.408-.775.57-1.182.083-.307.127-.622.13-.941-.015-.594.005-1.189.06-1.781.13-.741.371-1.462.571-2.192 0-.06.12-.11.11-.16-.21-1.602 3.333-3.143 3.063-4.825l4.754-3.724c1.252-.33 2.523-1.611 3.834-2.001-1.221-1.132 0-1.722.31-2.403.18-.36.531-1.141 1.342-.2-.161-.871.58-1.591-.331-2.202-.09-.06.09-.611.21-.901.521-1.301 1.071-2.592 1.602-3.894v-.09c-.45-1.171-.25-2.122.751-2.482l-.331-1.531c.479-.65.993-1.272 1.542-1.862 1.001-1.001 2.142-1.882 3.193-2.853.36-.35.6-.821.941-1.201.34-.38.65-.511.891-.831.316-.462.59-.951.82-1.461.531-1.111 1.001-2.252 1.552-3.363.28-.571-.34-1.582 1.141-1.642l5.315-3.003c.212-.273.439-.533.681-.781l-.491-1.221c1.181.831 1.151-.14 1.552-.76l.16 1.261c.25-.511.38-.721.47-1.001.078-.219.142-.444.19-.671h.261l.28 1.171c.52-.2 1.001-.57 1.471-.53 1.592.14 2.002-.1 2.703-1.592a1.695 1.695 0 0 1 1.001-.7 8.68 8.68 0 0 1 1.551-.261V31.73a2.735 2.735 0 0 0 2.463-1.361c.76.55 1.631.43 1.932-.33.3-.761.88-.681 1.401-.841.28-.065.564-.112.851-.14-.06-.261-.15-.501-.11-.521.73-.47 1.291-1.311 2.352-1.071.17 0 .41-.2.59-.34.181-.14.461-.401.691-.611.3-.62 1.251-1.061 1.652-.63 1.061 1.131 2.182.66 3.423.3l3.003.801c.27-.191.57-.341.891-.521l-.071-1.251c.851 1.171 1.142.25 1.712-.21l-.25 1.241c.4-.4.6-.561.761-.751.16-.19.27-.39.4-.58l.24.09-.09 1.121c.561 0 1.151-.22 1.572 0 1.451.65 1.931.57 3.062-.631a1.815 1.815 0 0 1 1.152-.35 8.39 8.39 0 0 1 1.551.26l.38-1.131a2.746 2.746 0 0 0 2.783-.49c.531.77 1.391.94 1.932.32.54-.621 1.051-.36 1.591-.34.287.025.572.072.851.14 0-.271 0-.521.07-.531.841-.2 1.642-.821 2.573-.25.14.09.45-.05.66-.13.211-.08.571-.23.861-.35.481-.491 1.532-.601 1.772-.061.63 1.422 1.842 1.332 3.133 1.392l.861-.791.41-.42a10.43 10.43 0 0 0 2.322 1.421c1.091.33 2.292.29 3.423.51 1.132.221 2.072.531 2.793.721.491-.32.801-.701 1.111-.701a5.938 5.938 0 0 1 1.622.361c.16 0 .4.18.43.32.22.911.541.671 1.001.14.144-.148.305-.279.481-.39l.27.25c-.3.37-.521.891-.911 1.071a1.242 1.242 0 0 0-.771 1.702c.311.801 1.151.55 1.642.33 1.351-.601 3.003-.901 3.433-2.682 0-.091.18-.161.43-.361a4.144 4.144 0 0 0 3.414 3.113c1.421-1.852 3.083-.43 4.714-.11l.471-.54 1.781 4.254c.721-.301 1.231-.551 1.762-.731.53-.18 1.141-.27 1.712-.441 1.101-.33 1.471-.14 2.102.881.233.291.578.469.951.491a11.84 11.84 0 0 0 1.771-.2 2.623 2.623 0 0 0 3.784 0l1.471 2.862.561-.16c.346.844.796 1.641 1.341 2.372.878.75 1.794 1.455 2.743 2.112.81.681 1.551 1.472 2.082 2.002.58 0 1.001-.22 1.311-.07.461.31.879.68 1.241 1.101.12.13.26.361.22.501-.26.901.15.841.771.58.199-.055.404-.089.611-.1l.11.351c-.441.17-.891.52-1.312.49a1.25 1.25 0 0 0-1.511 1.111c-.11.851.741 1.001 1.281 1.091 1.462.13 3.003.671 4.294-.671.07-.07.24-.05.551-.1a4.153 4.153 0 0 0 1.471 4.375c2.142-.921 2.893 1.131 4.174 2.202l.671-.251-.591 4.565c.781.08 1.341.11 1.892.22.551.11 1.141.32 1.712.45 1.131.251 1.351.591 1.401 1.792.073.365.289.687.601.891.528.273 1.077.503 1.641.691a2.622 2.622 0 0 0 3.283 1.881c.721 1.482 1.432 3.003 2.182 4.425.165.428.455.797.831 1.061zm4.304 47.575l-.56-1.592.2-.16c.27.28.56.551.82.841.127.187.268.364.421.53.236.167.483.319.741.451-.468.345-.959.656-1.472.931a.86.86 0 0 1-.751-.261 6.207 6.207 0 0 1-.51-1.351zm-9.949-33.362l1.001 2.122-.261.3-1.911-.84zm14.844 36.875c-.841 0-1.482-.13-1.402-1.251 1.242-.35 1.332-.26 1.402 1.251zm-7.367-17.817c.66-.62 1.121-.6 1.821.13l-1.221.711zm-112.537-52.92c-.11.12-.441 0-.671 0 0-.2 0-.501.11-.601.363-.243.741-.464 1.131-.66l.16.16c-.21.388-.454.757-.73 1.101zm16.776-10.41l.41.14-.39 1.281-.541-.19zm92.658 74.751l.901-.741.29 1.332-.26.13zm-91.087-72.739c-.23 0-.44-.381-.871-.781l1.272-.08.22.26c-.16.21-.381.611-.571.601zm-72.829 132.356a30.47 30.47 0 0 1 2.002 3.002c.771 1.482 1.241 3.113 2.082 4.555 1.551 2.672 3.003 5.495 5.415 7.517.935.835 1.94 1.588 3.003 2.252 1.002.51 2.065.89 3.163 1.131 1.027.242 2.066.429 3.113.561.366.02.735.02 1.101 0 .294-.018.59-.001.881.05 1.189.362 2.403.633 3.633.81 3.474.251 6.917.731 10.4.841.861 0 1.722.2 2.573.16 1-.05 2.072-.27 3.123-.37 1.881-.2 3.773-.4 5.665-.54 1.341-.111 2.692-.101 4.004-.201a13.337 13.337 0 0 0 2.342-.35c1.001-.24 1.912-.601 2.883-.871.252-.035.508-.035.76 0a6.117 6.117 0 0 0-.06.741c0 .25 0 .61.16.731.232.124.51.124.741 0 .641-.531 1.001-1.462 2.092-1.302 0 0 .05 0 .07-.07a7.748 7.748 0 0 0 2.002-2.762c.441-1.442 1.171-2.793 1.632-4.234.35-1.061.42-2.222.72-3.303.491-1.802 1.001-3.614 1.632-5.356a15.858 15.858 0 0 1 1.952-3.773 6.829 6.829 0 0 1 4.604-3.003c1.251-.17 3.744.43 4.544 1.411.801.981 1.782 2.002 2.603 3.063a37.79 37.79 0 0 1 3.613 5.005 51.75 51.75 0 0 0 5.466 8.248c1.651 2.002 3.573 3.463 6.386 3.523 2.382 0 4.764.401 7.156.601 1.602.14 3.203.24 4.805.36 1.161.09 2.322.26 3.493.28 1.171.02 2.343-.09 3.514-.15 1.171-.06 2.422-.16 3.633-.18.345.027.684.111 1.001.25.692.072 1.39.072 2.082 0 .951-.22 1.862-.61 2.803-.921a13.1 13.1 0 0 1 2.002-.63c2.001-.32 4.103-.411 6.105-.871 2.913-.661 5.806-1.481 8.659-2.382a11.473 11.473 0 0 0 7.547-6.547 36.985 36.985 0 0 0 1.551-3.893c.771-2.563 1.402-5.165 2.132-7.728a8.462 8.462 0 0 1 1.001-2.602 7.911 7.911 0 0 0 1.652-6.296c-.321-1.632-.441-3.303-.861-4.905a2.6 2.6 0 0 1-.09-1.781c.086-.309.019-.64-.18-.891-.811-.561-.601-1.131-.1-1.692.41-.438.847-.85 1.311-1.231.55-.47 1.101-.921 1.661-1.381l-.25-.351c-.318 0-.635.02-.951.06-1.091.201-2.182.391-3.243.671-1.731.441-3.443 1.001-5.175 1.411-1.271.351-2.562.651-3.833 1.001a8.517 8.517 0 0 1-1.312.481c-.95.09-1.911 0-2.872.05-1.932 0-3.874.1-5.806.1a18.44 18.44 0 0 1-2.873-.24c-1.701-.291-3.383-.671-5.074-1.001l-.11.41 2.062.731c-.374.14-.759.247-1.152.32-1.501.13-3.002.18-4.504.331-1.501.15-3.073.47-4.614.57a5.162 5.162 0 0 1-1.722-.5l.06-.281 2.392-1.241a6.506 6.506 0 0 0-2.001-.15c-2.423.22-4.855.41-7.267.741-1.422.19-2.813.63-4.214 1.001l-1.832.41c-.39 1.231-1.692.721-2.853.861l.781-1.181-.901-.631c-.07.19-.11.25-.1.31 0 1.602-.48 2.052-2.002 1.852a1.414 1.414 0 0 0-.801.26 3.8 3.8 0 0 1-3.003.751c-.18 0-.42.12-.63.19l-1.772.581c-.33 0-.58.2-.881.3-1.071.35-2.162.651-3.233 1.001a31.8 31.8 0 0 1-10.31 1.652c-2.582-.1-5.184.19-7.787.24a7.796 7.796 0 0 1-1.802-.41 1.672 1.672 0 0 0-.45-.061l-2.282.211-.491-1.202-1.641.631c.09-1.061-1.001-.19-1.362-.821a11.017 11.017 0 0 1 1.182-3.063c.48-.71.26-1.061-.271-1.751l-1.001 2.752-1.671-1.201.72-.921c-1.721.12-1.361-1.291-1.731-2.072-.401-.07-1.001-.08-1.001-.2-.25-1.301-1.181-.821-1.932-.821-.13 0-.33 0-.37-.08-.551-1.001-.941-.12-1.272.07l-1-1.201-1.782.311.09-.361-2.262-.941c-.751.09-1.592.431-1.822.191-1.271-1.352-2.733-.131-4.004-.421-.821-.18-1.681-.12-2.522-.24a10.558 10.558 0 0 1-1.532-.431c-.33 0-.62-.31-.9-.29a7.993 7.993 0 0 0-2.393.361c-1.421.51-2.762-.341-4.174-.081-.77.141-1.671-.75-2.392.281-.07.1-.47 0-.711 0-.24 0-.35-.09-.52-.12-.561-.08-1.131-.181-1.692-.211-.821-.05-1.701-.85-2.402.371-.4.682-1.312.853-1.932.36l-.911 2.002-1.351-.651c-.601.461-1.381.791-1.001 1.782a2.013 2.013 0 0 0-.681.17c-1.001.791-1.821 1.702-2.832 2.403-.811.56-1.842.82-2.102 2.001 0 .07-.15.121-.231.191l-1.271 1.121-.34-.311.1.261c-.647.289-1.316.523-2.002.7-.32.06-.711-.26-1.001-.39-.25.16-.55.5-.881.54-1.111.121-2.222.511-3.353 0a.829.829 0 0 0-.751.091 4.41 4.41 0 0 1-2.882.94c-.881.111-2.192-.14-2.232 1.372-.04 1.511 0 3.003.05 4.504v2.262h.14l.37 2.382zm101.697 2.722a.4.4 0 0 1 .36.11c.721 1.472 2.522 1.091 3.533 2.072.435.277.906.489 1.402.631a9.335 9.335 0 0 0-.15-1.131c-.261-1.071.14-2.062.88-2.142l1.462-.14a1.12 1.12 0 0 0 .29-.11l-1.121-.331a2.703 2.703 0 0 1 2.903-.4c.11.05.5-.16.56-.331.126-.385.22-.78.281-1.181a13.792 13.792 0 0 0-1.252-.67c-.31-.13-.78-.321-1.001-.19-.63.46-1.001 0-1.421-.271a17.813 17.813 0 0 1-1.551-1.471l.63-.17v-.22h-1.892c-.16-.271-.37-.661-.59-1.001-.22-.341-.531-.701-.12-1.252.15-.2-.301-.84-.501-1.351.391 0 1.001.1 1.291-.15.358-.531.618-1.12.771-1.742-1.471 0-1.411-1.071-1.812-1.841-.52-1.001.081-1.642.491-2.463.59-1.191 1.732-1.271 2.702-1.671.721-.301 1.001.29.841 1.251.471.801.821 1.411 1.191 2.002.225.446.504.864.831 1.241a19.108 19.108 0 0 0 3.504 3.093 4.252 4.252 0 0 0 4.003.39 15.25 15.25 0 0 1 2.563-.69h.2c1.431-1.392 3.373-.731 5.005-1.252.156-.054.299-.139.42-.25.411-.37.801-.751 1.201-1.121.07-.07.18-.13.22-.21 1.001-1.952 3.003-2.442 4.725-3.423a8.73 8.73 0 0 0 2.072-2.072c.18-.221 0-.721 0-1.302l-1.612-.6v-.23l2.543.12c0 1.151.69 1.862 2.002 2.092.79.13 1.561.1 1.801-1.001l-1.151-.521c2.933-.43 6.717 1.492 7.317 4.535.819 4.371.843 8.853.07 13.232-.26 1.612-.7 3.133-1.111 4.695-.46 1.771-1.781 2.762-3.203 3.663a18.653 18.653 0 0 1-6.656 2.392c-2.923.531-5.846 1.001-8.778 1.502a5.38 5.38 0 0 1-2.433-.11c-.41-.13-.6-.911-1.001-1.522a7.55 7.55 0 0 0-.56 1.301 1.151 1.151 0 0 1-1.532.921 1.465 1.465 0 0 0-.83 0 24.036 24.036 0 0 1-8.078 1.091c-2.132 0-4.274.06-6.406 0a32.542 32.542 0 0 1-10.72-1.641 7.813 7.813 0 0 1-4.505-4.895 224.35 224.35 0 0 0-3.713-8.828 15.088 15.088 0 0 0-1.702-2.413l-.28.111.27 2.001-.38.101c-.171-.436-.317-.88-.441-1.332a25.06 25.06 0 0 1-.78-4.074 6.115 6.115 0 0 1 4.384-6.115c2.162-.691 4.354-1.272 6.536-1.862a3.497 3.497 0 0 1 1.001 0l.08.36a4.818 4.818 0 0 0-1.251.421 21.58 21.58 0 0 0-1.922 1.651.424.424 0 0 0 0 .371c.541.49 1.101 1 1.652 1.431.09.09.26.18.26.27.06 1.121.891 1.161 1.691 1.251.801.09 1.152.591 1.001 1.502-.022.847.052 1.692.221 2.522 1.001 0 1.191.601 1.001 1.371-.06.231-.411.381-.721.661.2 2.272 1.922 4.404 3.803 4.434.131.671.401 1.141 1.212.901zm-55.553-15.665l.801.581-.391 1.651.741.08.36-1.301c.341.1.691.22 1.001.311.214.064.438.094.661.09.631-.07 1.271-.181 1.902-.281l.09.261c-.288.175-.56.376-.811.6-.12.11-.07.381-.09.581.17 0 .45 0 .49-.08.891-1.902 2.413-1.221 3.824-.941a9.496 9.496 0 0 1 1.932.45 5.928 5.928 0 0 1 1.792 1.151c.749.672 1.4 1.447 1.931 2.302.472 1.003.867 2.04 1.182 3.103l-1.001-.42c.1.3.11.611.23.671.951.44.66 1.131.5 1.861-.09.371.21.841.1 1.182-.37 1.121-.11 2.362-.72 3.433-.09.16.07.46 0 .68-.421 2.002-.331 4.134-1.272 6.006a19.867 19.867 0 0 0-1 2.713 3.935 3.935 0 0 1-3.093 2.572c-2.503.631-5.005 1.241-7.548 1.732a32.008 32.008 0 0 1-3.543.2c-1.241.1-2.472.29-3.713.36h-3.003a18.854 18.854 0 0 0-2.493 0c-3.663.421-7.267-.22-10.85-.74-3.583-.521-7.147-1.312-10.7-2.102a8.212 8.212 0 0 1-2.162-1.322 12.003 12.003 0 0 1-1.271-.75c-1.342-1.101-2.693-2.212-2.493-4.224 0-.18-.15-.361-.23-.541-.581-1.331-1.241-2.632-1.702-4.004a29 29 0 0 1-.71-3.363c-.331-1.671-.631-3.343-1.001-5.005a4.844 4.844 0 0 1 1.841-3.573c1.051-.601 2.092-1.251 3.194-1.752a4.713 4.713 0 0 1 1.841-.29c1.001 0 1.812-.1 2.162-1.241l1.001.62-.45-1.601-.741.17-.12-.27c.415-.27.863-.489 1.331-.651a14.214 14.214 0 0 1 2.523-.35c2.522-.11 5.004-.21 7.557-.24 3.253 0 6.526-.19 9.759.09 1.421.12 3.003 0 4.384 1.001.381.29 1.211 0 1.832 0 1.061 0 2.202-.561 3.123.46.05 0 .31-.14.45-.11.641.14 1.262.32 1.892.491v.33zm-18.177-6.176l.31.461c.1 0 .21 0 .21-.06.17-.631.621-.751 1.211-.781 1.562-.09 3.113-.24 4.675-.34.193.022.382.072.56.15.881.21 1.552 1.261 2.633.61.09-.05.35.061.45.161.591.59 1.261.45 2.002.32.881-.17 1.802-.36 2.512.56l.901-.81c1.001 1.161 2.262.8 3.504.47l.23.19c-.17.281-.3.771-.531.821-.772.165-1.561.246-2.352.24a1.949 1.949 0 0 1-.831-.31c-1.131.1-2.092.14-3.003.26-.91.12-2.001.311-2.942.531-.15 0-.221.43-.441.911l-.32-1.191a2.432 2.432 0 0 1-3.263.45l.861-.951-2.162.21c-.131 0-.291.13-.381.09a2.512 2.512 0 0 0-2.732.15c-.08.061-.371-.08-.511-.19-.55-.46-.55-.47-.941-.05l-4.814-.48a10.355 10.355 0 0 1 5.165-1.422zm96.691 2.433c.303-.119.628-.167.951-.14.428.044.859.027 1.282-.05.86-.321 1.331.29 1.651.78a1.854 1.854 0 0 1 0 1.492 5.103 5.103 0 0 1-1.131 1.471c-.741.731-1.561 1.381-2.312 2.102-.22.237-.396.512-.521.811-.18.42-.32.861-.41 1.091h-2.472c-.371-1.131.45-1.802.8-2.623a5.234 5.234 0 0 0 .551-1.881c0-.451-.471-.891-.791-1.442a78.969 78.969 0 0 1 2.402-1.591zm-37.465 24.183c-.491-1.001-.621-2.102-1.001-3.103-.471-1.161-1.131-2.232-1.632-3.383a2.367 2.367 0 0 1 0-1.442c1.332 4.004 3.644 7.437 5.365 11.181a6.378 6.378 0 0 1-2.732-3.233zm16.596-22.241c-.211.11-.341.38-.531.54-.19.16-.671.521-1.001.791-.05-.711-.11-1.171-.1-1.632 0-.64 0-1.271 1.001-1.181.47 0 1.001-.25 1.441-.25a7.8 7.8 0 0 1 1.492.27l-.09.381c-.741.37-1.482.71-2.212 1.101zm-47.826-2.673c.511.06 1.001.1 1.572.18.351.013.694.109 1.001.28.224.301.391.64.49 1.001a5.019 5.019 0 0 0-.841-.19h-1.911zm-33.642-.18l-1.691-.491c1.261-.7 1.511-.61 1.691.511zm84.38 1.481v-.25l.811-.1 1.001-.17c-.24.38-.24.38-1.812.52zm-24.363 97.883l.931-1.001c.23.171.475.322.731.451.261.081.529.141.801.18-.06-.22-.211-.461-.171-.661.04-.2.241-.61.391-.62.67 0 1.361.06 2.002 0 .45 0 1.061-.08 1.291-.371.661-.83 1.331-.16 1.942-.09.28 0 .5.651.881 1.181a15.272 15.272 0 0 0 1.451-1.721 1.411 1.411 0 0 1 1.752-.581 3.423 3.423 0 0 0 1.791.14c.811-.18 1.562-.65 2.373-.901 1.501-.46 3.093.361 4.634-.36a3.666 3.666 0 0 1 1.952-.06 15.27 15.27 0 0 0 3.183.621 25.537 25.537 0 0 0 3.924-1.001 3.765 3.765 0 0 1 3.583.72c.24.211.561.331.821.531.299.201.572.44.811.711.44.55.71 1.351 1.271 1.651.958.452 1.966.788 3.003 1.001.16 0 .43-.24.6-.41.166-.21.318-.43.451-.661 1.001.781 1.811.761 2.512-.35l.23.19-.43 1.481a2.74 2.74 0 0 1 .64 0c.324.104.641.225.951.361-.1.25-.2.49-.29.74-.09.251-.22.621-.31.891l1.171-.21.1.34c-.467.39-.978.726-1.521 1.001-1.142.411-1.162.351-.431 1.362.12.16.14.39.26.54.311.37.661.711 1.001 1.081.312.346.59.722.831 1.121.17.31.16.941.33 1.001a6.04 6.04 0 0 0 1.682-.08l-.711-.871c.501-1.141.871-2.302 2.192-3.003l-.35 1.692.28-.14 1.552 1.161a5.682 5.682 0 0 0-.07-1.201c-.15-.541-.461-1.001-.571-1.592-.11-.59-.07-1.101-.73-1.101-.361 0-.711.321-1.232.571a4.673 4.673 0 0 1-.32-1.051c0-.31.24-.721.12-.951-.57-1.141-.19-2.623-1.321-3.543-.07-.061 0-.241-.06-.471l1.221.11-.3-2.732c1.361-.311 1.431-.851.31-2.172 0 .32 0 .67-.14.88-.14.211-.541.501-.751.451-1.231-.29-1.441-.18-1.001 1.051.441 1.231-.1 1.902-.58 3.003-.231-.531-.341-.851-.511-1.151-.17-.301-.33-.801-.63-.951-.921-.461-1.172-1.001-.381-1.772a2.002 2.002 0 0 1-.09-2.552c-2.212-.791-2.142-2.583-1.922-4.435a2.734 2.734 0 0 0-.26-1.952 7.287 7.287 0 0 1-.55-1.711 6.36 6.36 0 0 0-.321-.811c-.48-.911-1.631-1.291-1.851-2.492-.061-.361-.701-1.221-1.332-.711l-1.902-2.582c-.154.35-.342.685-.56 1.001-.35.39-.771 1-1.151 1a1.453 1.453 0 0 1-1.382-1.331c-.26-1.221-1.221-1.591-2.452-1.211a7.333 7.333 0 0 1-1.411.11c-.351 0-.841 0-1.001.18a1 1 0 0 0 0 1.001c.313.226.716.286 1.081.16.931-.45 1.001.201 1.391.931-.801-.29-1.351-.31-1.651.491 0 .11-.721.1-1.001 0-.741-.331-1.432-.771-2.152-1.171 0 0 .19-.09.22-.211.15-.74.4-1.291 1.341-1.151.11 0 .35-.5.431-.79 0-.1-.291-.431-.421-.411-1.001.09-2.002.24-2.953.381v.26l1.091.32c-.21.451-.21.451-2.162.2.451-1.121 0-2.002-1.201-2.072v1.582c-.013.318-.141.62-.36.851-.19.13-.581-.06-1.001-.14l.61-.711c-.2-.15-.32-.26-.46-.35-.14-.091-.33-.181-.52-.281-.211 1.292-.481 1.532-1.222 1.001a1.75 1.75 0 0 1-.58-1.111c-.11-.69.35-1.481-.531-2.002-.21-.14-.19-.841-.07-1.231.2-.509.449-.999.741-1.461l-.611-.841a7.211 7.211 0 0 0 1.262-1.782c.31-1.081.75-1.761 2.001-1.391l.071-1.001 3.563-1.051c-1.311-1.141-2.202-.14-3.223.19v-.701c-.391.241-.901.401-1.111.741-.541.891-1.321.711-2.002.501a8.842 8.842 0 0 1-2.062-1.071c-.551-.371-1.001-1.001-1.562-1.252a7.006 7.006 0 0 0-6.906 1.752c1.661 2.352 1.661 2.412-.12 4.534a5.207 5.207 0 0 0-5.756 2.643c-2.602-.34-4.954.801-7.457 1.001-.38 0-.821-.23-1.191-.15-2.252.48-3.693-1.542-5.705-1.782-.05 0-.09-.09-.14-.13-1.001-.761-1.912-1.532-2.883-2.262a24.691 24.691 0 0 0-3.093-2.152 5.006 5.006 0 0 0-2.913-.801 14.32 14.32 0 0 0-3.473 1.662l.64 1.481.551-.28c.098.377.228.745.39 1.101.269.448.559.883.871 1.301-1.251 0-.911.731-1.001.881.591.741 1.071 1.281 1.462 1.882 0 .07-.351.43-.681.82.309.237.646.435 1.001.591.691.22 1.161.771.711 1.291a5.01 5.01 0 0 1-2.323 1.622c-.62.16-1.441-.421-2.372-.741-1.001.561-2.182.671-2.512.11l-1.001.721 1.501 1.061c-.17.66-.801.71-1.271 1.001-.801.55-1.171.62-1.642-.22-.06-.121-.26-.181-.4-.231-.33-.11-.671-.2-1.051-.31-.921 2.002-1.842 2.112-3.283 2.002-.41.911-.861 1.151-2.072 1.071l-.4-.811-.281-.1c0 1.251-.54 2.002-1.791 2.002l.66.591-1.001.73c-.16.471-.17 1.001-.45 1.241a2.42 2.42 0 0 0-.881 1.792c-.1.581-.25 1.151-.41 1.852l-.571-.671-.871 1.221c.941-.46 1.161 0 1.241.661l-1.501 1.001.45.811c1.212-.721 1.202-.711 2.002.47.09.14.351.17.671.321l-.801-2.173a10.29 10.29 0 0 1 1.872.511c.731.37.911.16.851-.571 0-.11.18-.23.27-.35l-.24.34 1.541 1.001-1.271.191-1.001 1.131c.831.85 1.632-.461 2.473-.151-.361 1.101-.931 1.442-1.662 1.162a5.818 5.818 0 0 0-1.341-.151l-.16.241c.95.86.23 1.081-.291 1.261l.11 1.001-.34.08c-.11-.3-.22-.601-.34-.891-.12-.29-.261-.581-.391-.871l-.24.07-.14.701c-1.321-.41-2.312 0-2.272.811l1.631-.801-.09.871 1.422.851-.121.37c-1-1.001-1.751-.15-2.562.08l.741 1.792.42-.08.441-2.002c.11 1.001.2 1.791 1.451 1.071l-.35 1.501 2.182.12-.691 2.142.2 1.191-.28.201-2.252-1.001c.11.32.12.53.24.63 1.161 1.001 1.251 1.271.531 2.463-.211.34-.651.54-1.001.83a7.64 7.64 0 0 0-.551.731c1.361-.23 2.532-.16 3.373-.661.841-.5 1.161-.17 1.742.121.324.094.664.128 1.001.1l-.451-.591c-.06-.08-.1-.17-.18-.3.471-.22.931-.411 1.362-.661 1.541-.871 1.581-1.001.83-2.242l1.131-.29c-1.471-.16-1.231-1.241-1.081-1.732.151-.49 1.001-1.001 1.502-1.471.721.69-.17 1.001-.451 1.411a2.673 2.673 0 0 0 2.853-1.001.71.71 0 0 0 .06-.38c-.13-1.001-.14-1.001.911-.771-.22-.801.31-.611.781-.701.768-.186 1.523-.42 2.262-.7.35-.11.761-.381 1.071-.291.911.231 1.922-.19 2.783.511.27.22.83.09 1.261.11v.2l2.072-.43v-.501h2.002a8.763 8.763 0 0 1 3.203.351c2.112 1.001 4.184.45 6.286.29.68-.05 1.361 0 2.002 0a8.59 8.59 0 0 0 2.442-.14 1.571 1.571 0 0 1 2.182.72c.154.158.36.254.581.271.54.09 1.081.14 1.621.2zm-7.827-8.868h-.24v.62c.15.701-.191 1.051-.871 1.001-.386.033-.768.1-1.141.201a1.346 1.346 0 0 1-.721-.091c-.51-.23-1.001-.53-1.772-1 .14.57.241.88.301 1.191.06.31.06.57.09.85a4.22 4.22 0 0 0-.711 0 4.79 4.79 0 0 0-.671.221l-.25-.441c-.761-.35-1.161 1.332-2.002.361-.53.34-1.141 1.001-1.651 1.001a9.847 9.847 0 0 1-2.573-1.162c-.64.071-1.521.101-2.362.261-.51.1-1.001.48-1.451.62a4.654 4.654 0 0 1-5.656-2.132l-1.141.681-.39-1.421c.53-.511.931 0 1.391.55.088-.216.195-.423.32-.621.221-.29.501-.8.701-.77 1.652.22 2.142-1.432 3.303-2.002.07 0 0-.24.11-.33a6.046 6.046 0 0 1 1.111-1.282c.671-.45 1.462-.71 1.472-1.701 0-.09.07-.241.14-.261.701-.25 1.732-.88 2.002-.63.801.65 1.541-.19 2.262.33l.15-1.101.521.851c.64-.17 1.231-.3 1.801-.481.232-.103.447-.238.641-.4.641-.41 1.301-.771 2.002-.23.7.54 1.151.54 1.171-.27 2.853-.261 4.915 1.391 7.187 2.522l-.06.37a14.011 14.011 0 0 1 3.003-.39c1.091.08 1.401-.751 2.001-1.241.351-.28.661-.591 1.001-.891a4.21 4.21 0 0 1 .881-.721 3.546 3.546 0 0 1 1.352-.37c.322.031.635.126.92.28.191-.24.361-.59.481-.58.841.225 1.699-.3 1.882-1.151a.69.69 0 0 1 .52-.411c1.171.15 1.632-.65 2.082-1.481a.532.532 0 0 1 .23-.19c.126-.016.255-.016.381 0l-.12.83c.494-.05.984-.144 1.461-.28.51-.19.711 0 1.071.36a6.422 6.422 0 0 0 1.702.781v-1.201c.64-.19 1.141-.27 1.001.691-.01.295.011.589.06.881v.8l.57-.39a.78.78 0 0 1 1.221.51c.14.561.311 1.121.441 1.582.489-.008.978-.048 1.461-.12a1.57 1.57 0 0 0 .661-.381c.08-.07 0-.27.11-.38.23-.4.48-.801.721-1.191.46.37.93.731 1.371 1.121.11.1.13.3.19.45 1.872 0 2.002 0 2.342-.4.404.26.774.57 1.101.921.16.21.05.611.08.921.03.31.09.56.14.841.221-.06.451-.211.651-.171.279.067.542.19.771.361.28.21.5.51.781.72.798.442 1.543.972 2.222 1.582.52.591.871.851 1.551.39.08-.05.24 0 .501 0l-.421.621.731.581c-.791.56-.631 1.531-1.461 2.182a6.543 6.543 0 0 1-3.494 1.491c-.881.09-1.731.37-2.602.52a.84.84 0 0 1-.691-.16c-.721-.911-1.001-.951-2.002-.14-.841-.18-1.191-1.952-2.272-.901l-1.061-1.521c-.38 1.371.05 2.252 1.081 2.572-.39.211-.821.631-1.171.571-.35-.06-.721-.551-.901-.931a3.848 3.848 0 0 1-.09-1.191 2.303 2.303 0 0 0-2.232-1.512c-.921.271-1.071 1.142-.38 2.403-.701.5-1.352 1.221-2.263.29-.08-.08-.32 0-.48 0a3.67 3.67 0 0 1-1.491-.21.527.527 0 0 0-.191.06c-1.001.811-1.191.801-2.002-.18-.91-1.141-1.231-1.181-2.252-.281a2.373 2.373 0 0 0-3.343 1.352 2.342 2.342 0 0 1-2.232 1.781c-1.251.11-2.492.391-3.744.421a5.15 5.15 0 0 1-2.142-.511c-.81-.38-.73-1.241-.89-2.002-.111-.51-.661-.92-1.081-1.461zm33.241-8.128l.111-.24h.69l.11-.21-1.291-1.001c.34-.751 1.001-.911 2.002-.471v2.513l-.34.09zm3.564-2.132a.796.796 0 0 1-.551.431c-.17 0-.39-.161-.59-.251l.34-.51c.19-.26.39-.531.761-1.001.061.43.078.867.05 1.301zm10.91 9.239c.14.16.411.41.381.46a5.473 5.473 0 0 1-.651.701l-.39-.37zm-65.973 36.124l-1.801-1.491c1.711-.2 3.183-.311 4.224-1.742l-1.532-.771.841-1.441-.56-1.541-2.273 1.341c.171-1.842 0-2.052-1.721-1.862h-.471c-.31-.891-1.091-.56-1.561-.57l-.23-2.092c-.391-.051-.761 0-1.001-.151a1.4 1.4 0 0 1-.561-.89c.032-.674.119-1.343.26-2.002l-2.001 1.441-.221-.24.581-.801c-.31-.12-.571-.33-.761-.29-.851.19-1.001-.331-.871-.911a8.682 8.682 0 0 0-.24-3.003c-.12-.681-.51-1.802.791-2.112a4.665 4.665 0 0 0-.07-.611c-1.121.461-1.171.531-1.442 1.712 0 .14-.15.35-.26.37a18.52 18.52 0 0 1-2.442.421c-.931.07-1.161.31-1.001 1.211.05.27-.14.581-.25 1.001-.07-.05.05 0 .14.11.091.126.171.26.24.4-1.441.161-1.441.161-1.742 2.132l.881-.15.28.901-1 1.882.21.11.841-.55-.291 1.831.321.07 1.281-1.791.5.88.08-.85 1.412.42-2.112 2.342-.161-.12.251-.62c-1.432.55-1.302 2.142-2.002 2.792l1.131 2.603.831-.201c.12.631.49 1.342.27 1.702a1.232 1.232 0 0 0 .37 1.922c.15.11.1.5.11.56.301.349.581.712.841 1.092.391.65.721 1.321 1.101 2.001.07.141.321.291.301.361-.551 1.531.66.77 1.261.911l-.251.78 2.593 3.063-.661.381c.233.069.479.069.711 0 .591-.1 1.642.86 1.501 1.361-.31 1.071.601 2.232 1.352 2.122l1.381 2.592c.2.361.571.701.571 1.051a1.63 1.63 0 0 0 1.161 1.832 2.743 2.743 0 0 1 1.371 2.783c.021.718.115 1.432.28 2.132.24-.27.341-.491.451-.491.52 0 1.281-.14 1.521.14.31.586.507 1.224.581 1.882l2.652-.25-.16 1.001.901-.36 2.612 2.132-.18.26.741-.26.39.9 1.532-.54 1.091.671-.07 1.001 1.301-.881.21.37c.2-.15.481-.48.581-.43.291.137.53.365.68.65.411.921.821 1.101 1.722.721a3.08 3.08 0 0 1 .701-.12c.36-.06.73-.11 1.091-.2.36-.09.4-.17.61-.251l.05.131-1.661 1.831-.591-.941c-.911 1.071 1.001 1.091.511 1.942.512-.329.98-.722 1.391-1.171.324-.483.61-.992.851-1.521l.3.12.641 1.852 4.684-2.293c-.26 1.682 1.191 2.002 2.052 2.092.861.09 1.902-.69 3.093-1.181l.921 2.373c1.061-.491 2.002-.851 2.933-1.352.931-.5 1.661-1.111 2.482-1.671.571.78 1.001 1.381 1.491 2.002l1.001-.721-1.161-.551.06-.33c.477.035.955.035 1.432 0 .315-.086.611-.232.871-.43.47-.301.92-.881 1.391-.891.791 0 1.511.54 2.412.27s1.652-.18 2.452-.38c.801-.201 1.572-.501 2.002.57 0 0 .12 0 .241.06l.53-.63.821.34c.17-.4.22-.881.47-1.001 1.111-.671 2.293-1.221 3.434-1.862.53-.3 1.241-.59 1.481-1.071.561-1.161.841-1.391 1.692-1.001.274-.218.569-.409.88-.57.741-.26 1.462-.511 1.782-1.352a3.692 3.692 0 0 1 1.872-1.841c.323-.167.568-.455.681-.801.13-1.361.13-1.401 1.421-1.602a1.66 1.66 0 0 0 1.131-1.641 2.555 2.555 0 0 1 1.051-2.593 8.36 8.36 0 0 0 1.001-1.181c-1.211-.52-2.212-1.001-3.243-1.371a1.005 1.005 0 0 0-.791.19 8.836 8.836 0 0 0-1.181 1.331 5.386 5.386 0 0 0-.48 1.061c.44-.34.69-.54 1-.71 0 0 .311.29.301.31a3.141 3.141 0 0 1-.621.691c-.469.297-1.05.36-1.571.17-.871-.15-.801-.701-.881-1.301 0-.221-.29-.411-.451-.621.311 1.542.131 1.852-1.291 2.092 0 .28.12.661 0 .811a2.004 2.004 0 0 0-.28 1.641c.13 1.171-.4 2.002-1.502 1.592-.71-.24-1.621.05-2.142-.831-.65-1.091-1.351.531-2.062.06l-.15.12c.29.689.624 1.358 1.001 2.002.591.911.571 1.081-.46 1.472l-.831.36-.19-2.002-1.121.09.29-.811-1.071-2.302c-.641.711-1.351.931-2.002.34a9.094 9.094 0 0 1-1.151-1.511c-.33.38-.57.641-.781.901-.21.26-.31.43-.47.63-.16.201-.541.671-.841 1.001a4.688 4.688 0 0 1-.731.521c-.06-.24-.11-.491-.17-.731 0-.09-.08-.18-.11-.26-1.001.18-1.001.32-.18 1.461l-2.713.881.641.351-.06.27h-2.002c-.46.279-.976.453-1.511.51-.431 0-.821-.59-1.212-.901-1.061 1.932-2.112 2.793-3.453 1.502-1.411 1.121-1.872 1.171-2.622.22l-.711.34-1.001-1.341-2.162 1.411-.28-.51-2.723-.34-.61.84c-.421-.91-1.602-.92-1.872-2.001l.751-.491-.161-.36h-1.001a2.763 2.763 0 0 1-2.462-.861 1.38 1.38 0 0 0-1.311-.791 4.543 4.543 0 0 1-1.131-.34 5.573 5.573 0 0 0 1.631-.441c.241-.16.241-.67.351-1.001h-.281l-.33.741h-.3l.06-1.421-.811.771-.25-.711h-.25l-.781 2.162-1.602-.45.311-.881c-.691 0-1.422.66-1.612-.181.25-.53.471-.9.611-1.291.14-.39.49-1.001.36-1.411-.29-.831-.791.14-1.251 0-.741-.22-.831.25-.731.691l-2.002.79c.14-1.111 0-2.182 1.261-2.742.391-.17.571-.791-.21-1.001a2.73 2.73 0 0 1-.46-.21v-.201h1.581c-.65-.71.451-1.881-.921-2.072.025.304.025.608 0 .911a.846.846 0 0 1-.43.1 3.664 3.664 0 0 1-.3-.9c0-.221.12-.471.07-.691a6.747 6.747 0 0 0-.391-1.261 5.091 5.091 0 0 0-.63-.851l-1.351 2.342-.761-1.381h-.3a5.304 5.304 0 0 1-.351 1.121c-.18.34-.45.791-.751.861-.883.161-1.775.267-2.672.32l-.07-.46-1.361.16-.101-.541 1.252-.37c.211-.058.413-.145.6-.26.581-.421 1.131-.881 1.712-1.282.07-.05.32.171.49.271.471-1.001.471-1.001-1.451-3.894l-.24 1.241-.591-1.221-1.001.731.371 1.501c-.691-.831-1.142-1.842-2.002-.691l-1.692-.8-.53.79-.861-1.361 1.111.1-.08-.831c1.591-.08 1.871-.22 2.002-1.151a4.288 4.288 0 0 0-.141-1.171zm6.006 12.282c-.35 0-.881 0-1.001-.16-.12-.16.611-1.472 1.111-1.612.2-.016.401-.016.601 0l-.14 1.882zm11.581 7.517a.39.39 0 0 1-.12.34.604.604 0 0 1-.45 0 1.07 1.07 0 0 1-.012-1.854l.012-.007c.24.61.45 1.081.61 1.551zm-8.178-4.634l-.26 1.541-1.591-.741zm100.156-22.171c-1.292-.141-1.632.12-1.512 1.351a16.918 16.918 0 0 0 1.482 6.506c.56 1.051 1.151 2.082 1.761 3.173l.721.17-.16.751.24.11.55-.951 1.001 1.201.751-.861.411 1.382h.7c-.06 1.621 1.582 1.571 2.362 2.362l-.12.28-1.321-.31v3.143l.641-.18c.18.57.32 1.051.47 1.521.06.18.21.361.21.541a6.051 6.051 0 0 0 2.002 4.003c1.462 1.632 3.183 3.003 4.685 4.625.52.56 1.171 1.561 1.001 2.122a15.766 15.766 0 0 1-2.002 3.683 11.76 11.76 0 0 1-1.552 1.702c-1.381 1.391-2.792 2.763-4.144 4.174-.941 1.001-1.801 2.002-2.722 3.003-.921 1.001-2.002 2.132-3.003 3.193 0 .05-.12.06-.18.1-1.632 1.001-3.313 1.932-4.885 3.003a36.604 36.604 0 0 0-3.163 2.752c2.002.221 4.004-.62 4.244-1.461 1.171-.55 2.282-1.071 3.373-1.611.14-.071.17-.321.281-.461a4.07 4.07 0 0 1 .42-.4c.22-.19.46-.371.671-.571.52-.54.82-1.341 1.701-1.441a2.914 2.914 0 0 0 2.483-1.602c.19-.35.72-.51 1.271-.871.061-.261.177-.507.34-.72a13.976 13.976 0 0 0 2.272-2.403c.331-.55 1.111-.87 1.372-1.431.91-2.062 2.762-3.423 3.803-5.385.44-.626.922-1.221 1.442-1.782.16-.251.243-.543.24-.84.05-1.072.06-2.133 1.511-2.753-.408-.204-.83-.381-1.261-.531a2.181 2.181 0 0 1-1.732-1.861l-4.674-3.874-1.081-3.874-1.001-5.525-1.662-3.113-4.003-2.382-2.293-2.533zM78.324 326.19c.701.871.671 1.311-.13 2.432-.8 1.121-1.681 2.242-2.382 3.443-.941 1.612-1.772 3.294-2.582 5.005-.451.931-.771 1.932-1.162 2.893 0 .06-.08.1-.16.18l-.39-.781c-.471.741-1.121 1.181-.811 2.092.071.236.03.49-.11.691-.611.49-.52.901 0 1.431.111.256.111.546 0 .801 0 .1-.52.18-.681.08-.75-.52-1.211 0-1.901.541l1.261.07-.901 2.342h-.43c-.501.711-.941 1.261-1.312 1.852-.37.59-.841 1.511-1.291 2.252-.06.1-.33.05-.42.15-.221.26-.541.561-.541.851.035.299.138.586.3.841-.426.238-.819.53-1.171.87-.71 1.001-1.341 2.002-2.002 3.053-.06.09-.15.191-.13.271.301 1.171-.71 1.401-1.351 2.002l.2.64-.6.17.41.681-1.001 1.912c-.44.58-.721.941-1.001 1.311a2.464 2.464 0 0 0-.28.591 8.951 8.951 0 0 1-1.001 2.602 7.8 7.8 0 0 0-1.552 6.186c.281-.07.631-.06.681-.17a9.993 9.993 0 0 0 .611-1.902c.12-.701.78-1.552 1.211-1.562a6.005 6.005 0 0 0 1.001-1.931 3.883 3.883 0 0 1 1.441-2.393c.373-.455.708-.941 1.001-1.451.851.16.631-.571.651-1.141a19.377 19.377 0 0 0 1.601-2.753c.331-.68.25-1.631 1.291-1.811.081 0 .111-.211.181-.311.27-.35.56-.69.81-1.051.661-.921 1.742-1.811 1.852-2.812.15-1.362 1.291-1.852 1.712-2.893.29-.751.941-1.401 1.061-2.162.079-.504.375-.946.811-1.211.6-.491 1.111-1.101 1.671-1.652.36-.14 1.401-1.281 1.201-2.002-.29-1.001.371-1.571.551-2.002l1.181-.18c-.21-1.321.861-1.541 1.752-2.002 0-.55-.161-1.211.84-1.001-.49-1.661.881-1.431 1.762-1.761l-.711-.601c2.002-.821 2.303-1.161 2.062-2.152.351 0 .801.14 1.001 0a5.819 5.819 0 0 0 2.353-2.633c.179-.567.6-1.026 1.151-1.251a11.67 11.67 0 0 0 1.551-.941c1.001.451 1.001.371 1.351-1.541.841.841 1.001.781 1.682-.24a1.34 1.34 0 0 1 1.001-.551 2.473 2.473 0 0 0 2.803-1.671l.24-.851c1.541 1.331 2.462-.411 3.783-.761l-.22 1.602 2.182-1.222v.841l-.19-.25 1.982-1.562c.49.341.851.761 1.001.701.6-.19 1.141-.57.741-1.261a3.58 3.58 0 0 0 1.141 0 13.458 13.458 0 0 0 1.661-.871l.06-.57.831.43v-.941l4.004-2.252c-1.311-.711-2.332-.05-3.463.28l.38-.59c-.5.09-.911.21-1.331.24-1.692.12-3.383.25-5.075.3h-5.605c-1.285-.024-2.568.1-3.824.371a18.442 18.442 0 0 0-4.004 1.761c-2.182 1.211-4.304 2.473-7.006 2.152a.76.76 0 0 0-.601.371 1.281 1.281 0 0 1-1.201.86c-.3 0-.551.531-.831.811-.28.28-.5.461-.751.681zm10.681 40.979c.56.753.2 1.836-.701 2.102l1.782 1.191c.39-.571.72-1.051 1.001-1.542.28-.49.73-1.141 1.081-1.721.165-.394.369-.769.61-1.121.661-.721 1.451-1.312 2.072-2.052.488-.675.926-1.385 1.311-2.122l.741.35c-.4-.911-.11-1.381.691-1.872.36-.21.37-1.001.54-1.581a6.512 6.512 0 0 0 2.342-3.263l.651.26c.29-.521.571-1.001.791-1.461.14-.321.14-.721.31-1.001.27-.471.661-.871.941-1.332.38-.62.651-1.291 1.061-1.881.661-.951 1.932-1.422 2.172-2.723 0-.21.39-.35.561-.551.54-.67 1.351-1.291 1.531-2.051.18-.761.711-1.001 1.331-1.232-.58-.87-.5-1.271.361-1.841a3.174 3.174 0 0 0 1.361-3.053 3.133 3.133 0 0 0 2.002-2.262c.57-1.492 1.001-3.003 1.661-4.485.321-.67.751-1.201.231-1.932a4.468 4.468 0 0 0 2.002-2.402l-.401-.42c.391-.561.951-1.001 1.001-1.482.1-1.231 1.171-1.791 1.602-2.772.192-.379.406-.747.64-1.101.311-.521 0-1.412.921-1.572 0 0-.07-.39-.06-.59 0-.591-.39-1.352.631-1.592.13 0 .24-.53.21-.791-.11-.91.09-1.151 1.001-1.121 0 .281-.07.571-.1.851l.33.09c.17-.604.404-1.188.701-1.741.39-.561.39-1.001-.06-1.412a1.779 1.779 0 0 0-1.242-.27 17.39 17.39 0 0 0-3.763.761c-.921.35-2.342 0-2.543 1.611l-.67-.47a4.23 4.23 0 0 1-1.532 2.732c-.26.161-.25.771-.34 1.171-.006.318-.05.634-.13.941-.26.531-.681 1.001-.911 1.532-.23.53-.28 1.491-.711 2.002-.8.911-.71 2.002-.89 3.003a3.811 3.811 0 0 1-1.512 2.942c-.14.08-.2.301-.34.541l.871-.13a26.493 26.493 0 0 0-1.682 2.662 19.664 19.664 0 0 0-.741 2.433c-.19.53-.39 1.421-.73 1.491-1.001.2-.771 1.001-1.001 1.511a10.79 10.79 0 0 1-.721 2.122 38.255 38.255 0 0 1-2.492 3.003.912.912 0 0 1-.171 1.532c-.57.43-1.081 1.001-.52 1.912h-1.461c-.781.88-.291 2.212-1.482 2.712a.266.266 0 0 0-.14.14 13.27 13.27 0 0 0-.601 1.802 13.794 13.794 0 0 0-.15 1.792 4.179 4.179 0 0 0-1.001.52 15.32 15.32 0 0 0-1.001 1.231c.059.193.059.399 0 .591a10.714 10.714 0 0 1-1.531 2.933c-.671.71-1.271 1.491-2.002 2.182-.16.15-.47.28-.48.43 0 .851-.571 1.151-1.392 1.171l1.832.941c-1.001.581-1.732 1.001-1.001 2.072l-1.922.391zM213.793 199.84c-.631-.511-1.001-1.101-2.002-.381-.801.581-1.501 1.142-1.271 2.153.176.889.434 1.76.771 2.602a22.142 22.142 0 0 1 2.102 8.878c0 .821.14 1.642.2 2.353l1.441.4.451-1.001.911.701c.57-.651.33-1.942 1.511-1.742 1.121.571.811 2.252 2.372 2.663.721.18 1.191 1.301 1.872 2.122l.611-.1 1.451 1.651a1.852 1.852 0 0 0 .921 1.732c.3.09.721-.26 1.181-.451l.1 1.732 2.743-.12.33 1.091c1.591-.751 1.601-.901.08-2.402.34-1.382 1.261-2.823-.26-4.064.05-.501-.17-1.001-.09-1.442a6.589 6.589 0 0 1 .861-1.561c-1.372.6-1.752-.451-2.263-1.001.891-1.211 1.642-2.382 1.141-4.004l-1.671.931-1.261.11-.231-1.291h-.22l-.09.891a1.221 1.221 0 0 1-1.451-1.211c-.12-1.262-.26-2.553-1.562-3.263l-1.331.82.23-2.382c-1.211.34-1.241.32-1.171-1.001l-1.731.741.23-1.091a9.416 9.416 0 0 0-.801-1.001 1.542 1.542 0 0 0-.621-.22l-1.641-.421.26-.29-.651-1.862c-.49.27-.62 1.411-1.451.731zm-29.218 73.069c.261.14.691.301.891.19.791-.46 1.412.07 1.942.381a9.024 9.024 0 0 1 1.662 1.611c-.591.791-.931 1.522-.171 2.262l2.533-1.581c-.28-.23-.531-.34-.631-.531a6.464 6.464 0 0 1-.31-1c.31 0 .621-.091.931-.111l2.002-.07c.61 0 1.001-.18 1.091-1.001 0-.43.55-1.231.76-1.201.931.12 1.902-.54 2.793.15a.886.886 0 0 0 .471.08c.5 0 1.001 0 1.681-.05 0-.63 0-1.521.15-2.402a1.42 1.42 0 0 1 .451-.751c.13-.12.39-.1.6-.15v.541c.01.242.057.482.14.71.141.286.323.549.541.781.31.331.671.621 1.121 1.001l.25-1.191.481 1.191c1.421-1.371.76-3.003.77-4.624l-1 .881c-.441-.271-.111-1.272-1.072-1.071a4.41 4.41 0 0 1-1.351-.07 9.53 9.53 0 0 0-1.731-1.142c-.461-.18-1.091.101-1.562-.07a16.944 16.944 0 0 0-4.594-1.001c-.45.022-.897.069-1.342.141a4.526 4.526 0 0 1-1.911 0c-.851-.411-1.922.08-2.623-.751 0 0-.19 0-.28.06a1.611 1.611 0 0 1-2.152-.681c-.701 2.403-2.342.811-3.634.941l.391 1.001c-.841-.49-1.422-.56-2.002.1-.2.23-.821.2-1.201.11-.721-.17-1.161-.15-.831 1.001l-1.632-1.751h-1.751c0 1.001-1.612 1.461-1.452 2.682l.301.16.56-.48v.33c.328.077.664.117 1.001.12.18 0 .34-.26.511-.41.174.22.313.467.41.731a1.661 1.661 0 0 0 2.222 1.431c-1.061 1.271.07 1.882.691 2.712l.22-1.121 2.002 1.001 1.371-.36.531 1.001.61-.651c.358.348.742.666 1.151.951zM78.304 326.2l-.23-1.151.811-.331-1.431-.49-.201.651c-.34-.201-.65-.521-1.001-.521-1.03.129-2.065.203-3.103.22a7.442 7.442 0 0 0-2.262.321 2.576 2.576 0 0 0-1.001.39 19.118 19.118 0 0 0-2.472 2.082 28.215 28.215 0 0 0-2.532 3.253c-.361.531-.551.44-.891.06a2 2 0 0 0-.641-.53 6.254 6.254 0 0 0-1.181-.251s-.18.371-.28.361c-1.281-.241-1.812 1.001-2.743 1.441a7.57 7.57 0 0 0-2.312 2.272c-.691.881-1.732 1.582-1.692 2.923.05 1.501 0 3.003.06 4.524.051.329.147.648.281.951h.33c.34-.61.671-1.231 1.001-1.852l1.591-2.892a.847.847 0 0 1 .261-.16 3.947 3.947 0 0 0 1.892-2.323c.2-.374.46-.712.77-1.001.26-.3.551-.59.831-.88l1.902-1.892a2.534 2.534 0 0 1-.561 2.923c-.18.2-.35.67-.24.86.39.711 0 1.212-.28 1.772a2.363 2.363 0 0 0-.24.791c-.141.911.23 1.902-.681 2.692-.35.311-1.111.871-.29 1.632.18.17 0 .761 0 1.271l-1.232-.701c.111.761.421 1.442.201 1.782-.591.941-.371 2.002-.651 2.943a5.015 5.015 0 0 1-.671 1.161c-.14.2 0 .671-.16.801a1.67 1.67 0 0 0-.27 2.712c-1.461-.19-1.141 1.001-1.571 1.592l1.381-.24c.62-1.131 1.161-2.182 1.772-3.193.49-.791 1.091-1.512 1.571-2.303.33-.55.51-1.181.821-1.741.13-.26.45-.411.59-.671 1.051-1.902 2.002-3.833 3.123-5.725.841-1.472 1.782-2.883 2.643-4.344.187-.43.321-.88.4-1.342l.631-.4-.25-.911 1.491-.601.1-1.221.811.471a5.822 5.822 0 0 1 3.393-4.074c.34-.17.891-.31 1.001-.571.27-.941.811-.82 1.461-.54zm120.595-176.378c.204-.222.489-.352.791-.36.456.047.917-.032 1.331-.23a7.647 7.647 0 0 1 3.593-.851c1.552.06 2.803-.761 4.234-1.001.798-.202 1.579-.47 2.333-.801a4.49 4.49 0 0 1 .75-.06s.07-.08.11-.12l-.6-.691c.56-.14 1.001-.24 1.461-.38a8.18 8.18 0 0 1 1.482-.56c1.081-.131 2.192 0 3.273-.201 1.371-.2 2.672-.73 4.074-.951 1.871-.3 3.673-1.051 5.625-.94.08 0 .17-.091.26-.121a15.23 15.23 0 0 1 2.132-.69 1.742 1.742 0 0 0 1.392-1.852l-2.002.761.09-.381c-.541-.31-1.061-.87-1.602-.88-1.852 0-3.163-1.071-4.564-2.002a7.454 7.454 0 0 0-1.251-.601c.14.46.29.921.44 1.381v.1c-.801.301-1.551 1.122-2.462.161-.08-.08-.421.12-.651.14-1.071.1-2.122.861-3.363 0l-.651 1.721h-2.792a1.008 1.008 0 0 0-.381.09l-1.601.551c-.278.089-.55.2-.811.33-1.261.711-2.522 1.442-3.904 2.232 0 0 .07.201.1.301l-6.005 1.321.881.52c-1.001.771-1.172.731-1.422-.46-.42.05-1.091 0-1.221.18-.56 1.001-1.001.451-1.541 0-.091-.08-.281 0-.571-.07.089.185.192.362.31.531.781.84.771 1.061-.21 1.621a4.315 4.315 0 0 1-1.131.361c-.791.17-1.591.31-2.392.46-.1-1.001-.871-.22-1.181-.32-.292.377-.55.778-.771 1.201a2.754 2.754 0 0 0-.26 1.361c0 .16.68.26 1.061.33.38.07.941 0 1.261.171.721.48 1.101.19 1.341-.311l3.493-.38a1.863 1.863 0 0 0-.09-.25c.721.35 1.192.29 1.612-.361zM316.17 340.103c.321.25.831.461.901.771.07.31-.39.65-.721 1.121l1.492-.721c.113.2.198.417.25.641-.028.642.006 1.286.1 1.922a24.25 24.25 0 0 0 1.001 2.672l1.341-1.521-1.551.24c.39-.911.701-1.602 1.061-2.442l-1.001-.231v-.31l1.231-.14 1.301-.931.151.22-.241.371c.421.31.831.49 1.001.8.142.368.22.757.231 1.151l.23-.06.41-.85a9.498 9.498 0 0 1 1.812 1.001c.791.67-.2 1.081-.441 1.611l.291.19 2.002-2.592c.77 1.001-.311 1.181-.861 1.631l2.002.741-.531.721 1.001.68c-.282.12-.543.286-.771.491a.89.89 0 0 0-.18.741c.291.66.671 1.291 1.001 1.941l1.582-1.251c-.531-.46-1.272.791-1.562-.25-.2-.741.311-1.331 1.191-1.582l-.59 1.152.21.21 1.511-1.301-1.711-1.262.13-.26c.424.253.874.462 1.341.621a2.54 2.54 0 0 0 1.001-.19 4.107 4.107 0 0 0-.42-.931c-.12-.15-.431-.15-.421-.15-.06-1.001-.12-1.922-.17-2.703l-1.211-.561.12-.28 1.281.15.07-.23-.88-.751c.94-.24.73-.85.59-1.431 0-.19-.15-.47-.07-.571.791-1 0-1.811-.2-2.692a1.007 1.007 0 0 0-.41-.601c-1.232-.61-2.002-1.861-3.304-2.412a1.762 1.762 0 0 0-1.731 0c-.23.13-.22.671-.441.801-1.111.63-1.891 1.832-3.323 1.882-.23 0-.57.13-.64.3a.682.682 0 0 1-1.212.2c-.22-.25-.1-.851 0-1.271.1-.421.421-.871.341-1.251a1.463 1.463 0 0 1 .44-1.532c.431-.37.551-.741.15-1.191-.4-.45-.66-1.141.261-1.551a1.692 1.692 0 0 1-1.001-2.333h-2.533c.561 1.051-.07 1.292-.66 1.562a11.629 11.629 0 0 1-.861 1.681c-.175.259-.276.56-.291.871.071 1.001.241 2.002.331 3.003.024.366.024.735 0 1.101l.66-.27-.14.29 1.402 1.422-.141.2-1.711-.631-.11.21.75.711-.73.23 1.671 1.522-.911 1.401zm12.352 4.114l-.21.11a3.956 3.956 0 0 1-.491-.761 9.307 9.307 0 0 1-.25-1.241c.631.05.631.05.951 1.892zm-8.618-3.003l.24-1.882h.37l.391 1.582zm-1.181-1.141c.08.14 0 .39 0 .581l-1.301-.861c.73-.601 1.03-.11 1.301.32zM116.621 191.292a41.23 41.23 0 0 1 2.002 3.853c.248.838.399 1.701.45 2.573.33 2.142.701 4.274 1.001 6.426.31 2.392.46 4.814.791 7.207.22 1.551.69 3.073 1.001 4.624.31 1.552.43 3.003.64 4.454.311.841.691 1.642.921 2.483.601 2.202 1.101 4.434 1.722 6.626a27.18 27.18 0 0 0 1.171 2.883l1.481.5c-.4-1.001-1.371-3.003-1.651-4.004-.631-2.192-1.131-4.424-1.732-6.626-.23-.851-.6-1.651-.921-2.492-.2-1.432-.37-3.003-.63-4.454-.261-1.452-.751-3.063-1.001-4.625-.341-2.392-.491-4.804-.791-7.197-.28-2.152-.651-4.294-1.001-6.436-.053-.871-.2-1.733-.44-2.572-.481-1.171-1.181-2.252-2.002-3.844-.391.741-.651-1.541-.741-1.161zm133.717 175.216c.07-1.491.15-3.003.23-4.554l.871-.13-.31 1.681 1.681-1.161-.24-.6.951-.681.27.24 1.001-.921a5.358 5.358 0 0 0-1.101-.28 1.77 1.77 0 0 1-1.451-1.361c0-.951 0-1.892-.06-2.833a1.006 1.006 0 0 0-.241-.42c-.31-.421-.64-.831-1.001-1.252-.09-.13-.15-.41-.22-.41-1.001 0-.751-.701-.741-1.271 0-.07-.11-.14-.18-.22l-.53.43c-.461-1.001-.881-2.002-1.342-2.893-.06-.11-.37-.17-.54-.15-.831.12-1.652.27-2.602.431a18.677 18.677 0 0 0-.551 3.002c0 .911.43 1.852.32 2.733a6.606 6.606 0 0 0 .471 3.193c.057.485-.076.972-.371 1.361a2.072 2.072 0 0 0 .131 2.413 1.511 1.511 0 0 0-.181 2.392l-.69.18.39 1.622-.31.09-.431-.711h-.3l-.46 2.943h.9c-2.242 1.071-.06 2.502-.34 3.793l-.49-.39-.881 1.712c.831.79.831.79 2.302.7l.41-.4-1.401-.601c.29-.14.38-.23.451-.21a1.51 1.51 0 0 0 1.811-1.061c.361-.831-.66-.73-1.001-1.131-.18-.24-.35-.49-.65-.891l2.272.611.19.781c.841-.811.771-1.171-.33-2.002l.09-.281 2.412.801.15-.2-1.191-1.001.29-.18a2.453 2.453 0 0 0 1.432-2.713 4.589 4.589 0 0 1 .21-1.401l.611 1.091zm-5.876 3.093l-1.151-2.002.24-.13c.441.691 1.682 1.061.911 2.132zm-113.598-28.827l-1.741-.751c-.241-.07-.631.22-.601.46.03.241.45.471.711.681.26.21.56.41.841.621-.751.931-.751.931-1.622.12l.12 1.231-1.271.1.57 1.001c-1 .36-1.171 1.001-.75 1.652-.351.38-.871.68-.871 1.001 0 1.221-1.111 1.621-1.552 2.262v1.571c-.63-.08-2.122.861-2.142 1.482.099.546.314 1.065.631 1.521-.191.37-.362.752-.51 1.141-.131.4-.191.811-.281 1.221l-.37-.08.27-1.051-1.001.781.19 2.192-.931-.41-.88 1.891 1.001-.25.11.19-.751.691c.811 1.081-.631 1.101-.861 1.772h.661l.14 1.481-.21.16-.14-.64c-.481.86-.871 1.481-1.171 2.142-.081.18.06.49.17.71.151.238.325.459.52.661-1.291-.36-.891.781-1.381 1.191l1.081.611-1.502.22v.3l.661.19c.12.361.14.831.32.901.901.361.831 1.001.701 1.822-.54-.951-1.001-1.211-1.421-.891a2.203 2.203 0 0 0-.331 2.643c.07.11.161.27.121.36-.341.731.06 1.151.62 1.501v.211l-.801-.171c-.32 1.001.331 1.372 1.001 1.662l-.13 2.002c.861-.09 1.432-.33 1.632-1.211.2-.881-.251-1.271-1.001-1.652h1.481c-.18-.62-.5-1.121-.41-1.521.31-1.392.77-2.753 1.211-4.264l-1.251 1.191c-.08-1.311-.281-2.392 1.101-3.003.34-.14.5-.751.74-1.141l1.001-1.762c-1.081-1.091.241-2.142.161-3.223 0 0 .06-.1.1-.16l.67.28v-3.443c1.131-.32 1.131-.32 1.201-1.191l-.73.53-.15-.12.39-.841-.921.081-.06-.241 2.182-1.501-.681-.561c1.662-.18 1.001-1.231.901-2.072.761 0 1.532.181 1.542-.93l-1.442.33c.434-.75.922-1.466 1.462-2.142a16.176 16.176 0 0 1 2.002-1.552l-.461-.22.411-1.812.77.891-.11-1.221h.781c-.18-.39-.57-.871-.45-1.051.37-.626.84-1.187 1.391-1.662.941-.8 1.001-1.171 0-2.001a6.2 6.2 0 0 1-.701-.951zm6.877-95.541a4.341 4.341 0 0 0 1.081-.631 4.972 4.972 0 0 1-.521-.921c-.23-.79-.57-.95-1.141-.24-.42-.57-1.461-.53-1.371-1.531a3.887 3.887 0 0 0-.571 0c-.29 1.441-1.501.19-2.082.791.051-.261.241-.371.291-.521.18-.52.32-1.051.48-1.571a6.437 6.437 0 0 1-1.001-.271 1.178 1.178 0 0 1-.56-.52c-.05-.1.17-.381.33-.511a2.229 2.229 0 0 0 .34-2.242c-.31-.51-.58-1.001-.911-1.651-.75-.1-1.811 1.001-1.931 2.072l1.001.09.13.26c-1.712 0-1.181 1.411-1.201 2.002a16.21 16.21 0 0 0 .69 4.004c.28 1.201 1.171 2.232 1.001 3.573 0 .23.27.49.481.831l.64-.871c.072.298.103.605.09.911a2.43 2.43 0 0 0 .601 2.392c.31.36.771.881.701 1.241-.181.871.22 1.251.84 1.682.321.21.461.681.721 1.001.15.193.342.35.561.46.291.107.588.197.89.271l-.89 1 .2.161 1.721-.501c-.6 1.632-.56 2.523.361 3.484l.26-1.832.791.14c-.1-1.321 1.811-2.923-.621-3.794.571-.77 1.161-1.571 1.792-2.442l.59.3c0-.2.07-.44.06-.44l-2.372-.551c.801-.35-.45-2.002 1.271-1.761-.14-1.342-2.462-1.562-1.601-3.424l-1.532.631c-.22-.571-.31-.921.391-1.071zm16.706-23.723l1.191-1.451c1.291 2.002 2.923 1.121 4.414 1.061l-.12.39 1.912.551.09-.19-1.161-.751c.135-.835.215-1.678.24-2.522 0-1.001-.42-1.932-.38-2.893.06-1.552.32-3.103.53-4.655a5.054 5.054 0 0 1 .4-1.821c.721-1.161 1.001-2.503 1.782-3.664.661-1.001.731-2.362 1.101-3.553a.921.921 0 0 0-.751-1.281 2.52 2.52 0 0 0-2.612.42.822.822 0 0 0 .07.3.942.942 0 0 1-.28 1.402c-.24.17-.751 0-1.131-.08a66.77 66.77 0 0 1-1.291-.291l-.151.221c.27.361.511.742.721 1.141.14.33.3 1.001.19 1.001-.72.44-.58 1.861-1.862 1.651-.08 0-.32.3-.29.34.33.561-.07 1.001-.13 1.552-.1.751-.17 1.511-.22 2.272v1.321a6.401 6.401 0 0 0 0 2.002c.18.521.24.921-.21 1.141-.151.08-.561-.36-.851-.56l-.24-.15c-1.322.55-1.362.911-.301 1.791.781.171 1.181-1.001 1.942-.41-.35.551-1.001 1.081-.891 1.491.19 1.001-.23 1.332-1.171 1.492.244.165.507.302.781.41.243.196.464.418.661.661-1.732-.18-2.162.12-2.563 1.551l.581.06zm65.061 153.857c-.07-.591-1.271-.471-.88-1.352.22-.51.47-1.001.68-1.441l.801.851 1.101-1.071.771.32v-.741a3.152 3.152 0 0 0 2.232-2.832l-.621.07.08-1.131 1.302-.711-.14 1.471.3.251c.23-2.002 1.782-1.712 2.813-2.002l1.521-2.603.771.25-.09-2.001 1.401.75-.08-1.001c.51 0 1.752-1.231 1.802-1.681.047-.382.135-.758.26-1.121.12-.391.27-.781.41-1.171l.18-.091.351.621 1.311-.45-.541-.811.511-1.111-.05-.341c-1.532 1.712-1.311-.2-1.732-.57-1.661 1.201-3.403 2.202-4.174 4.194l-1.061-.481c.451 1.071.19 1.292-1.211 1.442-.18.23-.42.48-.64.46-.651-.06-.711.23-.931.791a19.887 19.887 0 0 1-2.002 3.273c-.07.11-.461 0-.571 0l-1.391 1.642.23.56a2.322 2.322 0 0 1-1.461.27.59.59 0 0 0-.451.381c0 .48.16 1.001 0 1.441a2.842 2.842 0 0 1-2.152 1.782l.511.701-.741 1.811h-.3c0 .341-.09.611-.1.891-.01.28 0 .631 0 1.171 1.261-1.001 1.381.06 1.771.661l.821-.671-.57-.61zm36.735 1.761l-.3-1.001c-.2 2.182-.2 2.182-1.341 2.152l-.12 1.061-1.221.621.87.4-.71.451.33.05c0 .64.3 1.431 0 1.902a3.28 3.28 0 0 1-2.242 1.841l.61 1.252c-1.431-.371-1.651-.361-2.242.31.351-.08.811-.3.911-.2.591.65 1.091 1.371 1.712 2.172l-1.261.23-.08.32c1.711-.6 2.462.361 2.932 1.782l.371-.23-.581-2.333 2.052.881c-.236-.422-.45-.857-.641-1.301a1.1 1.1 0 0 1 0-.771c.431-.69.281-1.111-.61-1.321l.15-.25 1.732.08c.15.29.29.59.46.881.17.29.36.52.691 1.001l-.22-1.241 1.161.12a4.552 4.552 0 0 0-.391-1.001 2.093 2.093 0 0 1 .831-2.563l-.57-.71.14-.261 1.561.541.16-.13-1.871-2.172 1.401-.14c-.31-.551-.601-1.091-1.001-1.802l.33-1.391-1.841.5-.101-.47 2.893-.401-.69-.61.24-1.932-1.472.57.411 1.001c-1.852-.5-1.442 1.492-2.443 2.072zm37.826-232.22a10.487 10.487 0 0 0-.14-1.592c-.32-1.391-1.321-1.822-2.372-1.091a5.675 5.675 0 0 0-2.342 6.366c.68 2.462 1.161 5.005 2.742 7.117.511.701.751.801 1.211.07a6.001 6.001 0 0 0 1.001-3.473c-.06-1.552.231-3.113.221-4.665a16.056 16.056 0 0 0-.441-2.722zm-71.568 170.321l.491.581c.51-.24 1.161-.06 1.341-.28.581-.691 1.532-.451 2.182-1.171a5.004 5.004 0 0 1 2.773-1.001 3.062 3.062 0 0 0 1.852-.731c.45-.45 1.191-.12 1.761-.721a18.69 18.69 0 0 1 2.723-1.811c.861-.631 1.291-1.872 2.652-1.772.16 0 .331-.31.511-.461.18-.15.36-.45.52-.44 1.061.07 1.592-.711 2.272-1.291.681-.581 1.112-1.722 2.593-1.151-.691-.871 0-.941.36-1.171-.43-.741-1.001-.841-1.491-.281-1.632 1.732-4.214 2.002-5.796 3.774-.1.11-.31.11-.45.19l-3.844 2.052c-1.001.521-1.932 1.001-2.892 1.521l-3.003 1.592c-.321.17-.621.561-.921.561-1.822 0-3.003 1.531-4.785 1.711-.1 0-.18.18-.25.25l.48 1.312zm9.78-37.685l1.141-.931c.14-.421.33-1.001.63-1.071 1.111-.24.951 1.001 1.382 1.461 1.071-.13 1.281.06 1.321 1.191l.821-.47a7.909 7.909 0 0 0-.361-.861c-.54-1.001-.5-2.272-1.711-2.833-1.001-.46-2.002-1.001-3.003-1.461l-.391 1.001-.13-1.231-1.071-.611a7.828 7.828 0 0 1-.56 1.572c-.451.75-.621 1.321.44 1.601l-.26 2.072 1.752-1.001zm17.827 115.94l3.002 1.581.221-.39-2.222-1.522 2.061-.42c.761.561.761.561 2.403-1.101h-4.404v-.38l1.231-.401v-1.681l-.461.931-.3-.241v-1.001l-.23-.06-.551 1.312-.861-1.712c-.41.46-.83.731-.87 1.001-.04.27.34.63.51.921l-1.591.29.08.47 2.002-.26c-.591 1.001.33 1.001.7 1.111l-.66 1.542zm-117.692-52.83a3.388 3.388 0 0 0 .5-2.313c-.37-1.061-.57-1.001.551-1.131.1 0 .2-.12.44-.28l-.59-.14c-.191 0-.531 0-.551-.11-.25-1.351-1.001-1.061-1.922-.681-.14.06-.36-.07-.78-.17l.2 1.772 1.001-.07-1.352 2.382.931.861c.541-.04 1.442.12 1.572-.12zm61.678-22.642l-4.194 1.622.831.13c1.081.16 2.262-.14 3.173.791.12.11.481 0 .721 0s.47-.251.51-.211c.501.611 1.001.14 1.412 0 .61-.25 1.101-.32 1.201.551 1.001-.761 1.441-.741 2.352.13.23-.661.07-1.001-.621-1.141a9.512 9.512 0 0 1-2.422-.29 5.108 5.108 0 0 0-4.214-.341l1.341-1.151zm1.552-34.563a9.833 9.833 0 0 0-1.131.331.762.762 0 0 0 .08.5c.65.791 1.331 1.562 2.002 2.332l.26-.12-.2-1.201.16-.07.801 1.441.57-.53c-.35-.811-.67-1.492-.951-2.182-.28-.691-.57-1.562-.84-2.322l-.921 1zm33.291-8.398c-.391.323-.802.62-1.231.891-.42.24-.931.32-1.331.571a1.003 1.003 0 0 0-.31.74c0 .161.23.391.4.481.601.32 1.221.59 1.872.891 2.012-1.852 2.072-2.363.6-3.574zm6.517 13.933l-1.732-.59a4.729 4.729 0 0 0-.871.36c-.17.11-.4.411-.35.511.45 1.001.951 1.912 1.461 2.923l1.001-.771-.15-1.251.641.22a3.447 3.447 0 0 0 .23-3.634zm-11.141-9.639c-.14.361-.15.821-.39 1.071-.591.601-.281 1.001.18 1.432.29.25.57.63.901.7.467.074.946.015 1.381-.17a1.59 1.59 0 0 0-.12-1.091 13.2 13.2 0 0 0-1.251-1.521l.64-.871c-.86-.711-1.111-.15-1.341.45zm132.916 85.341l-2.352 2.913.31.26 1.942-1.801 1.001 2.522c.122-.369.269-.731.441-1.081.84-1.481.84-1.471-.741-1.722 0 0 0-.11-.08-.16 1.141-.71 1.221-.851.831-2.062l-.671 1.512zm-133.577-22.691a4.376 4.376 0 0 0-2.282-2.683c-.66-.26-2.002.781-1.932 1.462.621-.231.621-.231 1.342.51.72.741 1.001.701 1.431-.32.264.182.515.383.751.6.147.207.271.428.37.661zm-19.628 24.463l1.001-.841-1.181-.59 1.201-.291c-2.002-1-2.002-1-1.372-2.352-.43-.26-.77-.4-.9.311-.05.28-.311.52-.361.8-.05.281-.12.831.05 1.001.841.731.551 1.271-.35 1.802l1.932.17zm-11.501-83.079c-.08-.25-.37-.66-.471-.64-.375.09-.719.276-1.001.54a6.94 6.94 0 0 0-.72 1.251l.34.931 2.372-.17c-.16-.551-.31-1.221-.52-1.872zM88.314 369.741c-.31.27-.591.721-.931.771-1.411.22-.741 1.341-1.001 2.122l1.001-.38.1.14-.56.71.16.251c.268-.175.522-.369.76-.581.241-.26.381-.701.661-.821.821-.33.671-.921.611-1.581l-.921.53-.14-.18.41-.821zm81.307-215.474c-.21.13-.3.46-.45.69.24.15.48.421.71.411.37-.04.732-.125 1.081-.251l.321 1.702h.26c.164-.341.298-.697.4-1.061 0-.23-.23-.611-.14-.731.641-.76.2-1.191-.41-1.641-.601.3-1.231.55-1.772.881zm69.066 108.372c-.159.247-.307.5-.441.761-.54 1.211-.25 1.782 1.001 2.002.601.11 1.201.18 2.002.3zm78.344 79.756l-1.942-.38v-.35l.621-.181.681-.21c-1.512-1.051-1.732-1.001-2.493.29.621.321 1.001.741.411 1.262l1.531.84zm-106.741 1.522l-.25-2.483h-1.082l.631.791-.12.2-1.441-.49.42.821-1.612.17 2.323 1.321 1.121-.35zm14.594-51.339c0 .1.31.12.47.18a2.26 2.26 0 0 0 0-.52c-.09-.411-.22-.811-.34-1.222-.12-.41-.331-1.131-1.141-.9a2.599 2.599 0 0 1-.781.13c-1.181 0-1.201 0-.871 1.251 1.051 0 2.152-.22 2.633 1.081zm-82.789 53.901l1.191-.861h-.25l.12-1.401-2.392-1.001c1.091.891.05 2.492 1.301 3.263zm59.096 6.266c-.62.35-1.081.26-1.111-.871l-1.001 1.291 2.422.891.211-.67c1.091.68 1.361-.411 2.052-.881-1.071-.711-.941.16-1.162.911-.33-.901-.77-1.031-1.411-.671zm-61.238-144.747c-1.001-.671-1.421-.231-1.542 1.531 1.382 0 2.002-.38 2.703-1.942-.661-.53-1.091-.55-1.161.411zM85.341 374.446l-2.152 2.302c.51.27.621 1.181 1.381.61.14-.11 0-.56 0-1.051 1.231-.83 1.292-.95.771-1.861zm118.703-8.008l-1.452.811-.4 2.302a3.86 3.86 0 0 0 .871-.751c.172-.351.293-.725.36-1.111.16-.53.451-.72.821-.21.37.511.741.32 1.001.08l-1.131-1.101zm-55.503-48.136c0-.22-.16-.45-.25-.68-.28.13-.671.17-.831.39-.671.871-.47 1.381.821 2.002.1-.711.23-1.211.26-1.712zm33.152 34.033c.44.22 1.101 0 1.661 0v-.401h-1.511v-1.551h-.291l-.48 1.001-.881-.381c-.17 1.332.981 1.081 1.502 1.332zm132.525 2.052c-.36-.671.081-2.092-1.441-1.412l-.661-1.141-.23.09c.19.681.391 1.372.601 2.112l1.051-.49-.351 1.001zm-114.959-9.8c.11 0 .25-.56.22-.58-.54-.3-1.111-.561-1.721-.861l.2 1.161h-1.241c.901 1.021 1.742.45 2.542.3zm116.241 3.844l-1.231-.39.1-.921-1.131.82-.661-1c.59 1.971 1.191 2.272 2.923 1.511zm-141.495.941c-.28 0-.75.33-.75.51.012.364.193.701.49.911.2.09.641-.2.911-.41.271-.26.51-.553.711-.871a5.99 5.99 0 0 0-1.362-.12zm145.208-2.883l-2.002 1.001 2.192 1.291c-.09-.901-.17-1.621-.24-2.342zm-131.034-18.938c.18-.4.55-.831.5-1.201a1.703 1.703 0 0 0-.74-1.181c-.301-.16-.841.14-1.272.23v.35l1.251.471v1.221zm-42.24 55.273h1.351l-.35 1.541c1.091-.23.13-1.201.68-1.641h.771l-1.872-1.091c-.38.11-.811.36-.62 1.191zm33.702-31.7l-2.743-1.132c.21.551-.901 1.061.08 1.342a9.898 9.898 0 0 0 2.613.05zm-10.48-2.403c-.1 0-.17.491-.15.501.429.211.888.355 1.361.43.22 0 .54-.3.7-.55.137-.319.221-.656.251-1.001-.681.23-1.412.4-2.162.62zm.891 28.728l-.411-2.273-2.092.761 1.682.901.39-.641.14 1.262zm48.155-91.607l.22 1.561c.841-.34 1.782-.52 1.322-1.792zm-67.624 58.655l-.38.17.66 2.853.871-.941zm-67.384 33.262a2.79 2.79 0 0 0-.621.43.659.659 0 0 0-.08.521.51.51 0 0 0 .341.3c.5.09 1.001.14 1.601.22l.28-.71zm110.845-100.045c1.262-.901 0-1.772-.05-2.653-1.061.921-.7 1.792.05 2.653zm164.296 79.625c-.39-1.131-1.461 0-2.002-.71l-.24.09c-.06.46-.12.921-.17 1.391l.29.05.391-.771 1.161.151.17.87h.17l.23-1.071zm-79.475-182.173c.1-.75.2-1.501.27-2.252 0-.09-.24-.28-.35-.26-.11.02-.481.15-.481.25-.05.731 0 1.472 0 2.212zM133.337 334.217c1.111-.41.71-1.701 1.501-2.372-1.591.05-1.281 1.672-2.142 2.362h.641zm-16.946 7.548l.52.941c.871-.591.931-1.232.551-1.572zm35.593 1.871c.911 0 1.522.331 1.242 1.512l1.151-.631c-1.332-1.451-1.462-1.501-2.393-.881zm77.964 42.731c-.19.751.141 1.121 1.081 1.071l-.67-.921.791-.41-1.001-1.081c-.043.45-.111.898-.201 1.341zm-79.565-163.015c.156.32.37.609.63.851.338.146.704.211 1.071.19.101 0 .301-.29.281-.44-.02-.15-.21-.311-.371-.371-.43-.14-.89-.24-1.341-.35zm9.549-1.882c-1.081 0-1.381 1.001-2.002 1.562-.12.11.05.53.13 1.091.24-.571.32-1.001.461-1.001 1.001-.12 1.001-1.001 1.401-1.622zm-10.17-164.606l-1.451-1.341-.601 1.341zm206.576 315.54c.054-.276.138-.545.251-.801.236-.284.5-.543.79-.771l-2.392.11zm-46.173-8.869c-1.592.771-.731-1.061-1.512-1.351l-.18 1.471c1.461.851 1.461.851 1.732-.12zm-202.493-8.338a4.29 4.29 0 0 0 1.171-2.432l-1.441.881.891.45-1.191.241.61.81zm166.959-248.926c.37-.27 1.091-.571 1.071-.811-.07-.751-.721-.67-1.321-.56v1.101zm-61.428 186.007c.07.5.34.9.41 1.331.19 1.111.19 1.141 1.261.48zm8.858-246.034l-2.322.5c.831 1.141.831 1.141 2.322-.5zm-76.363 171.513l.161-.26a7.226 7.226 0 0 0-1.172-.691c-.11 0-.55.32-.53.46.108.531.255 1.053.44 1.562l.371-.11-.341-1.572zm97.003 160.602l-.691-1.501-.19.1-.331 2.222zm78.274-34.142c.457.308.944.574 1.451.791l.22-.291-1.691-1.541c0 .42-.13.901.02 1.041zm36.465 18.708l1.201-.951-1.462-1.081c.1.791.16 1.381.261 2.032zm-47.766-7.938c.23-.54.23-.54-1.091-1.501-.15.851-.08.971 1.091 1.501zm-84.08-14.303l-2.452-.631c.901 1.071 1.872 1.321 2.452.631zM154.467 221.45c0 .13 0 .301.06.381.21.26.46.49.69.73l.641-.77a7.52 7.52 0 0 0-.921-.401c-.14-.05-.32 0-.49.08zm-21.12 112.757c0 .251-.09.661 0 .731.74.441.44.841 0 1.321 1.001-.24.951-1.131 1.251-1.821l-.671.39-.61-.611zm60.537-41.239l-.26-2.272c-.961.941-.901 1.582.26 2.272zm116.11 57.855c-.53 1.392-.28 1.732 1.071 1.542zm-84.97-118.112l.16-.29c-.431-.471-.581-1.412-1.762-.571zm-44.042 45.103l1.331 1.131.621-1.471-1.141.55-.551-.49zm31.97 65.963c.004-.471.054-.94.15-1.402.221-.72.271-.7-.54-1.121l.17 2.543zm6.556 31.58l1.442-.611v-.39c-.3-.08-.801-.301-.861-.211a5.786 5.786 0 0 0-.53 1.222zM173.985 46.624a2.58 2.58 0 0 0-.18-1.001c-.13-.21-.52-.24-.791-.35l-.19.27.721 1.191zM90.086 364.436c0 .15.23.27.35.401.11-.101.27-.181.34-.311.18-.38.331-.77.511-1.191-.881.01-1.372.37-1.201 1.101zm188.829-75.642l.851 1.642.36-.16c.38-.811-.711-1.001-.791-1.662zm-89.775 30.379c-.05-1.051-.751-1.111-1.432-1.241l.421 1.201zm127.04 20.94c-.35-.741-.69-1.491-1.151-2.462 0 1.001-.811 1.932.771 2.002.14 0 .26.28.39.43zm-172.934 2.102l.09-.31a6.298 6.298 0 0 0-1.371-.641c-.14 0-.411.451-.621.701l.21.17.941-.811-.06 1.241zm19.108 4.624c.092-.184.159-.379.2-.58l-2.002.841 1.152.52c.228-.245.438-.506.63-.781zm68.445-126.119l1.351-1.061c-1.211-.501-1.381.14-1.561.77zm-85.491 44.852a8.31 8.31 0 0 0-.29 1.171c0 .1.32.231.5.351l.29-1.382zm19.428 15.695l2.102-.24c-.46-.34-.83-.751-1-.681a6.228 6.228 0 0 0-1.132.941zM274.04 106.231c-.29.15-.81.28-.82.46-.01.181.24.671.38 1.001l.27-.09.34-1.071zm-73.85 279.896l-1.311-.781c.43 1.501.691 1.592 1.311.781zm51.929-20.51l-.73-1.571c-.631 1.031-.381 1.501.7 1.571zm-84.31-87.783l1.121-1.001-.35-.34c-.62.1-1.001.38-1.081 1.001zm125.47 111.156a1.365 1.365 0 0 0-.441-1.102c-.23-.14-.66.051-1.221.131zm59.586-14.384c.541-.781.401-1.061-.941-1.642zm-42.04-19.929l-.16.07.721 1.551.33-.07.21-.59zm-18.607 31.49c.53.21 1.001.7 1.611.36l.05-.5-1.621-.18zm-94.18-1.802c-1.001.561-1.061.931-.31 1.702zm156.949-.831l.19-1.491-1.001.641.561.91zm-123.978-2.572l.781 1.381.381-.2-.661-1.421zm25.335 9.409a49.716 49.716 0 0 0-.811-1.101l-.811 1.001 1.511.23c.07-.13.12-.13.111-.13zm103.308-31.29l-1.001 1.602a1.112 1.112 0 0 0 1.001-1.602zm-49.688-2.392l-1.181.68.751 1.001c.17-.61.27-1.031.43-1.681zm2.323-5.886a1.921 1.921 0 0 0-.09-.69c-.091-.151-.351-.191-.541-.281-.07.18-.27.431-.21.531.2.261.428.499.68.71zm-91.988 26.335c-.49.19-1.351-.11-1.201 1.151l1.351-.901zm13.253-91.667v1.422h.36l.09-1.402zm12.161 17.507l.311-1.552c-1.051.641-1.071.781-.311 1.552zm64.402 46.894l.33.11c.6-.31.56-.84.13-1.481zM86.152 373.194H84.73v.441l1.402-.17zm31.029-33.121l1.422.21-.06-1.151zm93.089 3.824c.901-.361.56-1.051.55-1.642l-.42-.07-.12 1.732zm-99.985 11.01l-1.181-1.091-.451.801 1.502.45zm51.869-189.34c-.671-.12-1.401 0-1.812-.37-.41-.37-.42-1.001-.69-1.822l-.361 1.632-.67-.901-.261.15-.09.781c0 .26-.05.53-.08 1.001-1.221-1.722-1.201-2.152.14-2.833l-1.911-.711.13 2.303c-.591.24-1.161.43-1.562-.371a1 1 0 0 0-.46-.38c-.541-.27-1.001-.671-1.762-.431-.53.151-1.251-.51-1.922-.66-2.002-.421-3.943-.771-5.935-1.161l-.151-.871-.25-.09c-.16 1.331-1.261 1.081-2.002 1.231-.29.06-.72-.641-1.291-1.201-.751.14-1.812.34-2.883.52a.887.887 0 0 1-.48-.06c-.821-.34-1.121 0-1.051.801.06.661-.27.901-.671.921 0-.551.14-1.001 0-1.221a1.839 1.839 0 0 0-1.151-.421c-.532.02-1.06.104-1.571.251-.361.097-.714.214-1.061.35v.25l-.941-.15-.531.871-.881-.28a16.491 16.491 0 0 0-1.201 1.771 8.453 8.453 0 0 0-.84 2.242c-.161.931 0 1.932-.151 2.853-.15.921.341 1.501.691 2.172.06.11.47.16.651.08a12.807 12.807 0 0 0 2.132-1.141c.59-.43 1.001-.11 1.311.23.31.341.55.901.951 1.151a3.879 3.879 0 0 0 1.892.671c.33 0 1.001-.781.91-1.081-.1-.49-.68-.881-1.051-1.321-.22-.28-.55-.561-.6-.871-.29-1.652 0-2.072 1.611-2.793.235-.132.453-.289.651-.47 1.351-1.001 2.312-.821 3.003.66.57 1.162.881 2.453 1.511 3.574a25.867 25.867 0 0 0 2.333 3.193c.427.442.889.851 1.381 1.221a1.423 1.423 0 0 1 2.002-.07.307.307 0 0 0 .28 0c1.001-.891 2.002-.44 3.163 0-.52-1.602.861-1.251 1.542-1.662-.061-.12-.211-.27-.181-.34.461-.921.951-1.822 1.412-2.742.309-.455.535-.959.67-1.492a3.153 3.153 0 0 1 2.543-3.133c.76.791 1.381 1.462 2.052 2.072.1.08.49-.15.75-.24.461 1.451 1.001 1.762 2.363 1.081.37-.262.65-.633.8-1.061 0-.09-.47-.421-.77-.681zm-31.09.511l-.69-1.091 1.491-.671.19.35zm33.092 2.923c-.34-1.122-.481-1.162-1.552-.671-.461.245-.947.44-1.451.58-1.301.271-2.602.471-3.924.691.018.163.018.327 0 .491a1.702 1.702 0 0 0 .911 2.001c.661.221 1.532-.18 2.312-.31.121-1.451 1.001-.35 1.482-.38.891-.07 1.481-.541 1.381-1.381 0 0 .08-.091.16-.191l.901.571a10.83 10.83 0 0 0-.22-1.401zm-8.168 11.17l.941-3.093c-1.591.791-1.922 1.261-.941 3.093zm.441-3.904l-1.111-2.001h-.191l.381 3.002zm5.064-13.582c-.26 0-.48.44-.72.67l.17.29c.53-.6 1.281.811 1.872-.66a4.321 4.321 0 0 0-1.322-.3zm-7.517 17.666c.2.251.641.311 1.001.491l-.801-1.652-.58-.09c.052.437.181.86.38 1.251zm-17.156-7.006c.246.315.528.6.841.85.09.061.48-.19.62-.38s0-.41-.1-.831l-.34.601-.711-.421z" class="cls-4 cls-5"/></svg>
