<svg xmlns="http://www.w3.org/2000/svg" viewBox="0 0 948.53 292.15">
<defs><style>
.cls-1 {fill: hsla(200,30%,80%,1);}
.cls-2 {fill: hsla(200,60%,50%,1);}
.cls-3 {fill: hsla(200,35%,60%,1);}
.cls-4 {fill: hsla(200,75%,70%,1);}
</style></defs>
<path d="M132.44 21.29L35.27 42.91l97.17-1.53v16.64H0V38.89l90.23-21.24L0 18.42V1.58h132.44zm-.01 59.06l-24.38 3.45v20.28l24.38 3.06v17.41L0 105.42V83.8l132.43-20.86zM23.07 94.7l68.85 7.46V86.09zm93.04 30.48c17.45 5 18.39 22 18.39 27.36 0 4.78-.94 19.71-15.57 25.26-3.75 1.53-7.5 2.29-15.57 2.29H0v-17.41h102.42c7.5 0 17.63.19 17.63-10.71a10.75 10.75 0 0 0-2.06-6.89c-3.19-3.83-7.88-4-16.69-4H0v-17.6h100.36c1.12-.02 9.56-.02 15.75 1.7zm4.89 63.58c12.76 6.12 12.38 21.62 12.38 24.87a107.778 107.778 0 0 1-1.69 18.94l-15.94-.19a60.23 60.23 0 0 0 2.63-16.64c0-5.36-.94-10-6.57-11.48-2.44-.77-9-1-16.32-1H0v-17.75h91.92c14.82 0 22.51 0 29.08 3.25z" class="cls-1"/>
<path d="M226.26 122.34c-4.73 4.58-10.41 5.56-22.08 5.56h-29.33v104.67h-28.7V1.64h57.4c2.21 0 17-1.31 24.6 8.83 6.31 8.18 5.67 20.93 5.67 30.75v43.83c0 19.3-.31 30.42-7.56 37.29zm-22.08-81.12c0-8.51-1.89-11.45-11-11.45h-18v70.65h18.6c7.89 0 10.41-2.29 10.41-10.14zm97.04 191.35l-5.68-42.52h-33.43l-5 42.52h-28.7L259.9 1.64h35.64l34.38 230.93zm-23.66-190.7l-12.29 120h26.49zm151.87 156.68c-.31 2.62 0 18.32-9.46 26.83-8.83 7.52-21.44 7.19-31.85 7.19h-44.78V1.64h52c9.15 0 18.93 0 26.18 6.86 7.88 7.86 7.88 18.65 8.2 39.26 0 3.92.31 7.85.31 11.77 0 7.2-.31 14.4-.63 21.59 0 1.31.32 11.45-2.83 18-2.21 4.91-7.26 8.18-12 9.49a91.1 91.1 0 0 1-9.14 2c7.88.66 17 3 21.13 10.47 3.46 6.54 2.83 15.37 3.15 31.4 0 5.89.31 11.78.31 18 .04 9.43.04 18.59-.59 28.07zM400.1 41.87c-.31-6.22-1.26-9.16-3.15-10.79-2.21-2-5.36-2-10.72-2h-14.51v69.38h11.35c9.15 0 15.77-.33 17-11.78.64-4.58.95-12.1.95-23.22.02-7.2-.287-14.397-.92-21.59zm.95 98.79c-.31-4.26-.63-11.13-3.78-14.4-2.53-2.29-6.31-2.61-9.15-2.61h-16.4v80.46h15.14c6.62 0 12.61.66 13.88-7.85.31-3.59.94-19 .94-32.38 0-7.88-.31-15.37-.63-23.22zm42.44 91.91V1.64h29.33v202.48h48.56v28.45zM624.69 208c-9.47 27.15-38.48 26.82-45.1 26.82-2.52 0-11 0-18.61-2.94-6-2.29-19.24-10.14-24-28.13-1.89-6.87-2.2-11.12-2.2-24.21V64.44c0-20.61 0-40.56 17.34-54.3C557.51 5.89 567 0 582.74 0c4.73 0 18 0 29 9.16a37.902 37.902 0 0 1 10.09 12.43c6.3 11.45 6.62 23.55 6.62 49.39v109.91c.02 8.83-.61 18.32-3.76 27.11zM599.14 61.82c0-14.06 0-22.89-3.47-28.46-1.89-2.94-5.67-6.86-13.56-6.86a19.543 19.543 0 0 0-10.72 3.27c-7.89 5.23-7.25 14.72-7.25 32.05v123.65c0 12.43 1.89 24.21 17 24.21 18.92 0 18-17.67 18-31.41z" class="cls-2"/>
<path d="M688.83 140.12l-3.5-25.46h-20.62l-3.11 25.46h-17.71L663.35 1.86h22l21.2 138.26zM674.24 26l-7.59 71.87H683zm83.21 114.12c-2.33-12.93-2.72-15.87-2.72-29v-9.79c.051-4.77-.193-9.54-.73-14.28-.39-3.33-1-6.66-3.31-8.82a9 9 0 0 0-5.83-1.76h-7.39v63.65h-18.1V1.86h29.57c2.34 0 4.67 0 6.81.19 4.87.4 14 1 16.73 13.52.78 3.52 1.17 10.38 1.17 19.78 0 5.28 0 10.77-.39 16.25a34.272 34.272 0 0 1-2.14 11c-3.31 7.24-11.09 7.05-14 7.44 2.92.59 8.56-.2 12.45 5.87 3.12 4.9 3.31 10.58 3.31 21.94v15.05c0 15.66.39 18.6 3.5 27.22zm-2.14-115c-.19-2.93-.77-4.5-1.94-5.48-1.17-1.18-3.11-1.18-6.62-1.18h-9.14V61.2h8.56c4.67 0 7.39-1.18 8.56-6.07.78-3.33 1-11.56 1-21.15-.03-2.98-.22-5.88-.42-8.82zm35.22-23.26h17.9v138.26h-17.9zM867 140.12l-3.51-25.46h-20.61l-3.11 25.46h-17.7L841.52 1.86h22l21.21 138.26zM852.41 26l-7.58 71.87h16.34zm80.95 114.51a30 30 0 0 1-12.06 2.15c-11.09 0-17.12-4.7-20-8.22-5.64-6.46-6-13.91-6-21.94V89.59H912v25.26c0 6.66 1 9.6 3.89 11.56a8.702 8.702 0 0 0 5.45 1.76c9-.19 8.75-10 8.75-16.25 0-10-1.55-15.47-6.61-24.09-5.06-9-11.29-17-16.54-25.85-2.92-4.7-10.5-16.45-10.5-32.51 0-15.27 6.61-22.42 12.25-25.75C911.57 2 916.43 0 924.22 0c3.69 0 17.5-.2 21.78 13.32a30.466 30.466 0 0 1 1.37 10.38v23.59h-16.54V23.7c-.19-1.57.39-9.4-7.2-9.4-8.75 0-9 6.75-9 13.21 0 11.56 3.12 18 9.15 27.62 2.53 4.11 5.25 8 8 12.14 2.14 2.93 4.09 5.87 6 9 9.54 15.07 10.7 25.45 10.7 33.48.05 2.95.25 23.71-15.12 30.76z" class="cls-3"/>
<path d="M677.66 221c-.13 1 0 7-3.71 10.21-3.47 2.87-8.41 2.74-12.5 2.74h-17.56V146.1h20.41c3.59 0 7.42 0 10.26 2.61 3.1 3 3.1 7.1 3.22 14.94 0 1.49.12 3 .12 4.48 0 2.74-.12 5.48-.24 8.22 0 .5.12 4.36-1.12 6.85a7.252 7.252 0 0 1-4.7 3.61c-1.23.37-3.58.74-3.58.74 3.09.25 6.68 1.12 8.28 4 1.36 2.49 1.12 5.85 1.24 12 0 2.24.12 4.48.12 6.85 0 3.6 0 7.03-.24 10.6zm-11.51-59.63c-.12-2.37-.49-3.49-1.23-4.11-.74-.62-2.11-.75-4.21-.75H655V183h4.46c3.58 0 6.18-.13 6.67-4.48a69.97 69.97 0 0 0 .38-8.84 85.537 85.537 0 0 0-.36-8.27zm.38 37.6c-.13-1.62-.25-4.23-1.49-5.48a5.46 5.46 0 0 0-3.59-1H655v30.63h6c2.6 0 4.95.25 5.44-3 .13-1.37.37-7.22.37-12.32-.04-2.94-.16-5.8-.28-8.8zM713.31 234l-2.23-16.18H698L696 234h-11.26l12.37-87.89h14L724.56 234zM704 161.41l-4.82 45.69h10.42zM758.19 234c-1.48-8.22-1.73-10.08-1.73-18.42v-6.23a74.818 74.818 0 0 0-.49-9.09c-.25-2.11-.62-4.23-2.11-5.6a5.678 5.678 0 0 0-3.71-1.12h-4.69V234H734v-87.9h18.8c1.49 0 3 0 4.33.12 3.09.25 8.91.62 10.64 8.59.49 2.24.74 6.6.74 12.58 0 3.36 0 6.84-.25 10.33a21.589 21.589 0 0 1-1.36 7c-2.1 4.61-7.05 4.48-8.9 4.73 1.85.38 5.44-.12 7.91 3.74 2 3.11 2.1 6.72 2.1 13.94v9.59c0 10 .25 11.82 2.23 17.3zm-1.36-73.08c-.12-1.87-.49-2.86-1.23-3.48-.74-.62-2-.75-4.21-.75h-5.81v27.14H751c3 0 4.7-.75 5.44-3.86.5-2.12.62-7.35.62-13.45.02-1.87-.06-3.74-.23-5.61zM815 221c-.12 1 0 7-3.71 10.21-3.46 2.87-8.41 2.74-12.49 2.74h-17.52V146.1h20.41c3.58 0 7.42 0 10.26 2.61 3.09 3 3.09 7.1 3.22 14.94 0 1.49.12 3 .12 4.48 0 2.74-.12 5.48-.25 8.22 0 .5.13 4.36-1.11 6.85a7.28 7.28 0 0 1-4.7 3.61c-1.24.37-3.59.74-3.59.74 3.1.25 6.68 1.12 8.29 4 1.36 2.49 1.11 5.85 1.24 12 0 2.24.12 4.48.12 6.85 0 3.6 0 7.03-.29 10.6zm-11.5-59.63c-.12-2.37-.49-3.49-1.24-4.11-.75-.62-2.1-.75-4.2-.75h-5.69V183h4.45c3.59 0 6.19-.13 6.68-4.48.308-2.936.431-5.888.37-8.84a83.054 83.054 0 0 0-.33-8.27zm.37 37.6c-.12-1.62-.25-4.23-1.48-5.48a5.484 5.484 0 0 0-3.59-1h-6.43v30.63h5.94c2.59 0 4.94.25 5.44-3 .12-1.37.37-7.22.37-12.32.04-2.94-.12-5.8-.21-8.8zm57.19 25.68c-3.71 10.35-15.06 10.21-17.69 10.21a21.624 21.624 0 0 1-7.29-1.12 15.8 15.8 0 0 1-9.4-10.7c-.74-2.62-.87-4.24-.87-9.22V170c0-7.84 0-15.44 6.81-20.67a18.793 18.793 0 0 1 12-3.86c1.86 0 7 0 11.38 3.49a14.543 14.543 0 0 1 4 4.73c2.47 4.36 2.59 9 2.59 18.8v41.83a29.798 29.798 0 0 1-1.53 10.33zM851 169c0-5.35 0-8.71-1.36-10.83a5.9 5.9 0 0 0-5.32-2.61 7.858 7.858 0 0 0-4.2 1.24c-3.09 2-2.85 5.61-2.85 12.2v47.06c0 4.73.75 9.22 6.68 9.22 7.42 0 7-6.73 7-11.95zm31.48 54.41h18.67v10.58h-30.92v-7.72l20.66-69.96h-15.71V146.1h27.83v7.59zm54.8 10.59l-2.23-16.18h-13.11L920 234h-11.29l12.37-87.89h14L948.53 234zM928 161.41l-4.82 45.69h10.39z" class="cls-4"/>
<path d="M396.08 262v19.2c0 1.41 0 3 .13 4.1h-2.59l-.13-2.75h-.06a5.869 5.869 0 0 1-5.41 3.11c-3.84 0-6.79-3.24-6.79-8.06 0-5.28 3.25-8.52 7.12-8.52a5.29 5.29 0 0 1 4.78 2.42h.07V262zm-2.88 13.86a5.529 5.529 0 0 0-.13-1.21 4.25 4.25 0 0 0-4.17-3.34c-3 0-4.75 2.62-4.75 6.13 0 3.21 1.57 5.86 4.69 5.86a4.34 4.34 0 0 0 4.23-3.44c.091-.407.135-.823.13-1.24zm19.1 2.03c.07 3.9 2.56 5.51 5.44 5.51a10.384 10.384 0 0 0 4.39-.82l.49 2.07a12.788 12.788 0 0 1-5.27 1c-4.89 0-7.8-3.21-7.8-8s2.82-8.55 7.44-8.55c5.18 0 6.55 4.55 6.55 7.47a9.399 9.399 0 0 1-.1 1.34zm8.46-2.06c0-1.84-.76-4.69-4-4.69-2.92 0-4.2 2.69-4.43 4.69zm15.79 6.52a7.518 7.518 0 0 0 3.8 1.15c2.1 0 3.08-1.05 3.08-2.36 0-1.31-.82-2.13-2.95-2.92-2.85-1-4.19-2.59-4.19-4.49 0-2.55 2.06-4.65 5.47-4.65a7.944 7.944 0 0 1 3.9 1l-.72 2.1a6.194 6.194 0 0 0-3.25-.92c-1.7 0-2.65 1-2.65 2.16 0 1.16.95 1.9 3 2.69 2.75 1.05 4.16 2.43 4.16 4.79 0 2.78-2.17 4.75-5.93 4.75a9.099 9.099 0 0 1-4.46-1.08zM463 265c-.103 1.374-1.655 2.121-2.793 1.345a1.792 1.792 0 0 1-.777-1.345 1.75 1.75 0 0 1 1.8-1.8A1.71 1.71 0 0 1 463 265zm-3.21 20.32v-15.88h2.88v15.86zm31.13-15.88c-.07 1.15-.13 2.42-.13 4.36v9.2c0 3.64-.73 5.86-2.27 7.24a8.42 8.42 0 0 1-5.77 1.9 10.235 10.235 0 0 1-5.27-1.31l.72-2.2a8.907 8.907 0 0 0 4.65 1.25c2.95 0 5.12-1.54 5.12-5.54v-1.77h-.07a5.65 5.65 0 0 1-5 2.66c-3.93 0-6.75-3.35-6.75-7.74 0-5.37 3.51-8.42 7.15-8.42a5.28 5.28 0 0 1 4.95 2.75h.06l.13-2.39zm-3 6.26a4.21 4.21 0 0 0-4.19-4.36c-2.76 0-4.72 2.33-4.72 6 0 3.11 1.57 5.7 4.69 5.7a4.21 4.21 0 0 0 4-3 4.85 4.85 0 0 0 .23-1.54zm17.28-1.97c0-1.64 0-3-.13-4.29h2.56l.16 2.62h.07a5.811 5.811 0 0 1 5.24-3c2.2 0 5.6 1.31 5.6 6.75v9.47h-2.88v-9.14c0-2.56-1-4.69-3.67-4.69a4.1 4.1 0 0 0-3.87 2.95c-.14.433-.207.885-.2 1.34v9.54h-2.88zm29.62 4.16c.07 3.9 2.56 5.51 5.44 5.51 1.509.048 3.01-.231 4.4-.82l.49 2.07a12.838 12.838 0 0 1-5.28 1c-4.88 0-7.8-3.21-7.8-8s2.82-8.55 7.44-8.55c5.18 0 6.56 4.55 6.56 7.47-.007.448-.04.896-.1 1.34zm8.46-2.06c0-1.84-.75-4.69-4-4.69-2.92 0-4.19 2.69-4.42 4.69zm16.19-1.44c0-1.87 0-3.48-.13-4.95h2.52l.1 3.11h.13a4.76 4.76 0 0 1 4.39-3.47c.277-.006.553.028.82.1v2.72a4.102 4.102 0 0 0-1-.1c-2 0-3.48 1.54-3.87 3.7a7.641 7.641 0 0 0-.13 1.35v8.45h-2.85zm37.77 5.86v-8l351.29 4-351.29 4zm-245.94 0v-8l-351.3 4 351.3 4z" class="cls-3"/>
</svg>
