<svg xmlns="http://www.w3.org/2000/svg" viewBox="0 0 554.82 361.82"><defs><style>.cls-1{fill:#5c8599;}.cls-2{fill:none;stroke:#5c8599;stroke-miterlimit:10;}.cls-3{font-size:20.93px;fill:#f5f8fa;font-family:MyriadPro-Regular, Myriad Pro;}.cls-4{letter-spacing:-0.01em;}.cls-5{letter-spacing:0em;}.cls-6{letter-spacing:0.01em;}.cls-7{letter-spacing:-0.01em;}.cls-8{letter-spacing:0em;}.cls-9{letter-spacing:0em;}.cls-10{letter-spacing:0em;}.cls-11{letter-spacing:0.01em;}.cls-12{letter-spacing:0em;}.cls-13{letter-spacing:-0.01em;}.cls-14{letter-spacing:-0.04em;}.cls-15{letter-spacing:-0.02em;}.cls-16{letter-spacing:0.01em;}.cls-17{letter-spacing:0em;}</style></defs><title>Risorsa 23</title><g id="Livello_2" data-name="Livello 2"><g id="Livello_1-2" data-name="Livello 1"><rect class="cls-1" x="0.5" y="0.5" width="525.47" height="36.98"/><rect class="cls-2" x="0.5" y="0.5" width="553.82" height="36.98"/><text class="cls-3" transform="translate(16.01 26.68)">Dise<tspan class="cls-4" x="37.61" y="0">g</tspan><tspan x="49.18" y="0">no G</tspan><tspan class="cls-5" x="90.24" y="0">r</tspan><tspan x="96.98" y="0">afi</tspan><tspan class="cls-4" x="118.07" y="0">c</tspan><tspan x="127.32" y="0">o </tspan><tspan class="cls-6" x="143.25" y="0">A</tspan><tspan x="156.35" y="0">ziendale</tspan></text><rect class="cls-1" x="0.5" y="185.55" width="447.56" height="36.98"/><rect class="cls-2" x="0.5" y="185.55" width="553.82" height="36.98"/><text class="cls-3" transform="translate(16.01 211.73)">Dise<tspan class="cls-4" x="37.61" y="0">g</tspan><tspan x="49.18" y="0">no UX e UI (</tspan><tspan class="cls-7" x="150.49" y="0">w</tspan><tspan x="165.68" y="0">e</tspan><tspan class="cls-8" x="176.17" y="0">b</tspan><tspan x="188.01" y="0">)</tspan></text><rect class="cls-1" x="0.5" y="278.08" width="375.58" height="36.98"/><rect class="cls-2" x="0.5" y="278.08" width="553.82" height="36.98"/><text class="cls-3" transform="translate(16.01 304.25)">Dise<tspan class="cls-4" x="37.61" y="0">g</tspan><tspan x="49.18" y="0">no </tspan><tspan class="cls-9" x="76.72" y="0">E</tspan><tspan x="86.93" y="0">di</tspan><tspan class="cls-4" x="103.63" y="0">t</tspan><tspan x="110.43" y="0">o</tspan><tspan class="cls-10" x="121.92" y="0">r</tspan><tspan x="128.85" y="0">iale</tspan></text><rect class="cls-1" x="0.5" y="231.81" width="375.58" height="36.98"/><rect class="cls-2" x="0.5" y="231.81" width="553.82" height="36.98"/><text class="cls-3" transform="translate(16.01 257.99)"><tspan class="cls-11">S</tspan><tspan x="10.44" y="0">e</tspan><tspan class="cls-10" x="20.93" y="0">r</tspan><tspan x="27.85" y="0">i</tspan><tspan class="cls-4" x="32.75" y="0">g</tspan><tspan class="cls-12" x="44.32" y="0">r</tspan><tspan x="51.06" y="0">afia</tspan></text><rect class="cls-1" x="0.5" y="139.29" width="500.28" height="36.98"/><rect class="cls-2" x="0.5" y="139.29" width="553.82" height="36.98"/><text class="cls-3" transform="translate(16.01 165.47)"><tspan class="cls-13">A</tspan><tspan x="12.56" y="0">udio e</tspan><tspan class="cls-14" x="67.2" y="0"> </tspan><tspan class="cls-15" x="70.88" y="0">V</tspan><tspan x="82.23" y="0">ideo</tspan></text><rect class="cls-1" x="0.5" y="324.34" width="250.14" height="36.98"/><rect class="cls-2" x="0.5" y="324.34" width="553.82" height="36.98"/><text class="cls-3" transform="translate(16.01 350.52)">Dise<tspan class="cls-4" x="37.61" y="0">g</tspan><tspan x="49.18" y="0">no 3D</tspan></text><rect class="cls-1" x="0.5" y="46.76" width="512.96" height="36.98"/><rect class="cls-2" x="0.5" y="46.76" width="553.82" height="36.98"/><text class="cls-3" transform="translate(16.01 72.94)"><tspan class="cls-15">W</tspan><tspan class="cls-12" x="17.37" y="0">r</tspan><tspan x="24.11" y="0">apping</tspan></text><rect class="cls-1" x="0.5" y="93.03" width="512.96" height="36.98"/><rect class="cls-2" x="0.5" y="93.03" width="553.82" height="36.98"/><text class="cls-3" transform="translate(16.01 119.2)"><tspan class="cls-16">I</tspan><tspan x="5.21" y="0">nse</tspan><tspan class="cls-4" x="35.6" y="0">g</tspan><tspan class="cls-17" x="47.17" y="0">na</tspan></text></g></g></svg>