<svg xmlns="http://www.w3.org/2000/svg" viewBox="0 0 141 161">
<defs><style>
.cls-1 {
fill:hsla(200,10%,98%,1);
stroke:hsla(200,30%,80%,1);stroke-width:5;stroke-linecap:round;stroke-linejoin:round;}
</style></defs>
<path d="M 128.019 4.93 L 70.216 62.857 L 12.412 4.93 C 9.118 2.051 3.948 3.824 3.106 8.123 C 2.768 9.848 3.245 11.633 4.399 12.96 L 66.2 74.933 C 68.414 77.142 71.999 77.142 74.212 74.933 L 136.052 12.981 C 139.346 10.101 138.295 4.727 134.159 3.307 C 131.975 2.558 129.555 3.208 128.039 4.95 Z" class="cls-1"/>
<path d="M 128.019 45.643 L 70.216 103.57 L 12.412 45.643 C 9.118 42.763 3.948 44.537 3.106 48.836 C 2.768 50.561 3.246 52.346 4.399 53.673 L 66.2 115.685 C 68.411 117.901 72.001 117.901 74.212 115.685 L 136.033 53.733 C 139.327 50.853 138.275 45.479 134.14 44.06 C 131.956 43.311 129.535 43.96 128.019 45.703 Z" class="cls-1"/>
<path d="M 128.019 86.366 L 70.216 144.293 L 12.412 86.366 C 9.118 83.486 3.948 85.259 3.106 89.559 C 2.768 91.284 3.246 93.069 4.399 94.396 L 66.22 156.347 C 68.436 158.551 72.016 158.551 74.232 156.347 L 136.052 94.396 C 139.346 91.516 138.295 86.142 134.159 84.722 C 131.975 83.973 129.555 84.623 128.039 86.366 Z" class="cls-1"/>
</svg>
