<svg xmlns="http://www.w3.org/2000/svg" viewBox="0 0 126 126">
<defs><style>
.cls-1 {fill:hsla(200,30%,80%,1)}
.cls-2 {fill:hsla(200,10%,98%,1)}
.cls-3 {fill:hsla(200,60%,50%,1)}
.cls-4 {fill:hsla(200,35%,60%,1)}
.cls-5 {fill:hsla(200,75%,70%,1)}
</style></defs>
<circle cx="63" cy="63" r="63" class="cls-2"/>
<circle cx="63" cy="63" r="61.11" class="cls-1"/>
<circle cx="63" cy="63" r="57.93" class="cls-2"/>
<circle cx="63" cy="63" r="56.28" class="cls-1"/>
<circle cx="63" cy="63" r="54.8" class="cls-2"/>
<path d="M 37.03 92.14 C 38.83 88.5 38.83 84.23 38.83 76.01 L 38.83 13.81 C 35.326 15.535 32.017 17.63 28.96 20.06 L 28.96 77.99 C 28.96 82.05 28.86 85.69 28.43 87.04 C 27.58 90.16 25.04 90.68 22.07 90.68 C 19.772 90.651 17.484 90.386 15.24 89.89 C 17.073 93.139 19.234 96.192 21.69 99 L 23.23 99 C 25.04 99 33.63 99.21 37.03 92.14 Z" class="cls-1"/>
<path d="M 69.73 67.82 C 75.27 67.82 77.96 67.36 80.21 65.18 C 83.65 61.92 83.8 56.64 83.8 47.48 L 83.8 26.67 C 83.8 22.01 84.1 15.96 81.11 12.08 C 80.792 11.653 80.437 11.255 80.05 10.89 C 67.663 6.834 54.236 7.327 42.18 12.28 L 42.18 113.68 C 46.548 115.468 51.13 116.681 55.81 117.29 L 55.81 67.82 Z M 55.96 21.24 L 64.49 21.24 C 68.83 21.24 69.73 22.64 69.73 26.67 L 69.73 49.97 C 69.73 53.69 68.53 54.78 64.79 54.78 L 55.96 54.78 Z" class="cls-3"/>
<path d="M 104.66 85.67 L 106.18 96.67 C 109.242 92.767 111.761 88.468 113.67 83.89 L 105.08 27.89 C 101.832 24.014 98.067 20.602 93.89 17.75 L 80.25 115.01 C 83.755 113.849 87.132 112.335 90.33 110.49 L 93.59 85.67 Z M 98.66 38.07 L 103.35 76.63 L 94.64 76.63 Z" class="cls-4"/>
<path d="M 77.69 105.44 C 77.69 104.16 77.62 102.95 77.62 101.74 C 77.55 98.45 77.69 96.64 76.92 95.29 C 76.01 93.75 73.99 93.29 72.24 93.14 C 72.24 93.14 73.57 92.94 74.24 92.74 C 75.359 92.493 76.321 91.785 76.89 90.79 C 77.364 89.616 77.579 88.354 77.52 87.09 C 77.59 85.61 77.66 84.09 77.66 82.66 C 77.66 81.85 77.59 81.04 77.59 80.24 C 77.52 76 77.52 73.79 75.77 72.17 C 74.17 70.76 72 70.76 69.97 70.76 L 58.47 70.76 L 58.47 117.6 C 59.96 117.72 61.47 117.8 63 117.8 C 67.359 117.796 71.703 117.276 75.94 116.25 C 77.54 114.44 77.49 111.71 77.55 111.25 C 77.69 109.27 77.69 107.39 77.69 105.44 Z M 64.76 76.44 L 67.98 76.44 C 69.16 76.44 69.86 76.44 70.35 76.84 C 70.84 77.24 70.98 77.78 71.05 79.06 C 71.19 80.54 71.26 82.06 71.26 83.49 C 71.294 85.086 71.224 86.683 71.05 88.27 C 70.77 90.62 69.3 90.68 67.28 90.68 L 64.76 90.68 Z M 71.19 110.78 C 70.91 112.53 69.58 112.39 68.12 112.39 L 64.76 112.39 L 64.76 95.83 L 68.4 95.83 C 69.108 95.782 69.812 95.973 70.4 96.37 C 71.1 97.04 71.17 98.45 71.24 99.37 C 71.31 100.99 71.38 102.53 71.38 104.15 C 71.4 106.89 71.26 110.01 71.19 110.75 Z" class="cls-5"/>
</svg>
