<svg xmlns="http://www.w3.org/2000/svg" viewBox="0 0 122.21 122.21">
<defs><style>
.cls-1 {fill: hsla(200,30%,80%,1);}
.cls-2 {fill: hsla(200,10%,98%,1);}
.cls-3 {fill: hsla(200,60%,50%,1);}
.cls-4 {fill: hsla(200,35%,60%,1);}
.cls-5 {fill: hsla(200,75%,70%,1);}
</style></defs>
<circle cx="61.11" cy="61.11" r="61.11" class="cls-1"/>
<circle cx="61.11" cy="61.11" r="57.93" class="cls-2"/>
<circle cx="61.11" cy="61.11" r="56.28" class="cls-1"/>
<circle cx="61.11" cy="61.11" r="54.8" class="cls-2"/>
<path d="M35.14 90.25c1.8-3.64 1.8-7.91 1.8-16.13v-62.2a54.655 54.655 0 0 0-9.87 6.25V76.1c0 4.06-.1 7.7-.53 9.05-.85 3.12-3.39 3.64-6.36 3.64a33.607 33.607 0 0 1-6.83-.79 54.554 54.554 0 0 0 6.45 9.11h1.54c1.81 0 10.4.21 13.8-6.86z" class="cls-1"/>
<path d="M67.84 65.93c5.54 0 8.23-.46 10.48-2.64 3.44-3.26 3.59-8.54 3.59-17.7V24.78c0-4.66.3-10.71-2.69-14.59A9.21 9.21 0 0 0 78.16 9a54.79 54.79 0 0 0-37.87 1.39v101.4a54.567 54.567 0 0 0 13.63 3.61V65.93zM54.07 19.35h8.53c4.34 0 5.24 1.4 5.24 5.43v23.3c0 3.72-1.2 4.81-4.94 4.81h-8.83z" class="cls-3"/>
<path d="M102.77 83.78l1.52 11A54.996 54.996 0 0 0 111.78 82l-8.59-56A55.236 55.236 0 0 0 92 15.86l-13.64 97.26a54.398 54.398 0 0 0 10.08-4.52l3.26-24.82zm-6-47.6l4.69 38.56h-8.71z" class="cls-4"/>
<path d="M75.8 103.55c0-1.28-.07-2.49-.07-3.7-.07-3.29.07-5.1-.7-6.45-.91-1.54-2.93-2-4.68-2.15 0 0 1.33-.2 2-.4A4.06 4.06 0 0 0 75 88.9a8.788 8.788 0 0 0 .63-3.7c.07-1.48.14-3 .14-4.43 0-.81-.07-1.62-.07-2.42-.07-4.24-.07-6.45-1.82-8.07-1.6-1.41-3.77-1.41-5.8-1.41h-11.5v46.84c1.49.12 3 .2 4.53.2a55.2 55.2 0 0 0 12.94-1.55c1.6-1.81 1.55-4.54 1.61-5 .14-1.98.14-3.86.14-5.81zm-12.93-29h3.22c1.18 0 1.88 0 2.37.4.49.4.63.94.7 2.22.14 1.48.21 3 .21 4.43a36.691 36.691 0 0 1-.21 4.78c-.28 2.35-1.75 2.41-3.77 2.41h-2.52zm6.43 34.34c-.28 1.75-1.61 1.61-3.07 1.61h-3.36V93.94h3.64a3.19 3.19 0 0 1 2 .54c.7.67.77 2.08.84 3 .07 1.62.14 3.16.14 4.78.02 2.74-.12 5.86-.19 6.6z" class="cls-5"/>
</svg>
